  0
SECTION
  2
HEADER
  9
$ACADVER
  1
AC1009
  9
$DWGCODEPAGE
  3
ansi_1252
  9
$INSBASE
 10
0.0
 20
0.0
 30
0.0
  9
$EXTMIN
 10
-19.3586954643
 20
-0.1453253627
 30
0.0
  9
$EXTMAX
 10
19.3413045357
 20
32.4937079624
 30
0.0
  9
$LIMMIN
 10
0.0
 20
0.0
  9
$LIMMAX
 10
420.0
 20
297.0
  9
$ORTHOMODE
 70
     0
  9
$REGENMODE
 70
     1
  9
$FILLMODE
 70
     1
  9
$QTEXTMODE
 70
     0
  9
$MIRRTEXT
 70
     1
  9
$DRAGMODE
 70
     2
  9
$LTSCALE
 40
1.0
  9
$OSMODE
 70
    37
  9
$ATTMODE
 70
     1
  9
$TEXTSIZE
 40
3.5
  9
$TRACEWID
 40
1.0
  9
$TEXTSTYLE
  7
STANDARD
  9
$CLAYER
  8
0
  9
$CELTYPE
  6
BYLAYER
  9
$CECOLOR
 62
   256
  9
$DIMSCALE
 40
1.0
  9
$DIMASZ
 40
3.556
  9
$DIMEXO
 40
1.0
  9
$DIMDLI
 40
3.75
  9
$DIMRND
 40
0.0
  9
$DIMDLE
 40
0.0
  9
$DIMEXE
 40
1.0
  9
$DIMTP
 40
0.0
  9
$DIMTM
 40
0.0
  9
$DIMTXT
 40
3.5
  9
$DIMCEN
 40
2.5
  9
$DIMTSZ
 40
0.0
  9
$DIMTOL
 70
     0
  9
$DIMLIM
 70
     0
  9
$DIMTIH
 70
     1
  9
$DIMTOH
 70
     1
  9
$DIMSE1
 70
     0
  9
$DIMSE2
 70
     0
  9
$DIMTAD
 70
     1
  9
$DIMZIN
 70
     0
  9
$DIMBLK
  1

  9
$DIMASO
 70
     1
  9
$DIMSHO
 70
     1
  9
$DIMPOST
  1

  9
$DIMAPOST
  1

  9
$DIMALT
 70
     0
  9
$DIMALTD
 70
     3
  9
$DIMALTF
 40
0.0393700787
  9
$DIMLFAC
 40
1.0
  9
$DIMTOFL
 70
     1
  9
$DIMTVP
 40
0.0
  9
$DIMTIX
 70
     0
  9
$DIMSOXD
 70
     0
  9
$DIMSAH
 70
     0
  9
$DIMBLK1
  1

  9
$DIMBLK2
  1

  9
$DIMSTYLE
  2
ISO-25
  9
$DIMCLRD
 70
     0
  9
$DIMCLRE
 70
     0
  9
$DIMCLRT
 70
     0
  9
$DIMTFAC
 40
1.0
  9
$DIMGAP
 40
1.524
  9
$LUNITS
 70
     2
  9
$LUPREC
 70
     2
  9
$SKETCHINC
 40
1.0
  9
$FILLETRAD
 40
10.0
  9
$AUNITS
 70
     0
  9
$AUPREC
 70
     2
  9
$MENU
  1
.
  9
$ELEVATION
 40
0.0
  9
$PELEVATION
 40
0.0
  9
$THICKNESS
 40
0.0
  9
$LIMCHECK
 70
     0
  9
$CHAMFERA
 40
10.0
  9
$CHAMFERB
 40
10.0
  9
$SKPOLY
 70
     0
  9
$TDCREATE
 40
2456821.646832026
  9
$TDUPDATE
 40
2456821.648132836
  9
$TDINDWG
 40
0.0000000116
  9
$TDUSRTIMER
 40
0.0000000116
  9
$USRTIMER
 70
     1
  9
$ANGBASE
 50
0.0
  9
$ANGDIR
 70
     0
  9
$PDMODE
 70
     0
  9
$PDSIZE
 40
-1.0
  9
$PLINEWID
 40
0.0
  9
$COORDS
 70
     1
  9
$SPLFRAME
 70
     0
  9
$SPLINETYPE
 70
     6
  9
$SPLINESEGS
 70
     8
  9
$ATTDIA
 70
     0
  9
$ATTREQ
 70
     1
  9
$HANDLING
 70
     1
  9
$HANDSEED
  5
524
  9
$SURFTAB1
 70
     6
  9
$SURFTAB2
 70
     6
  9
$SURFTYPE
 70
     6
  9
$SURFU
 70
     6
  9
$SURFV
 70
     6
  9
$UCSNAME
  2

  9
$UCSORG
 10
0.0
 20
0.0
 30
0.0
  9
$UCSXDIR
 10
1.0
 20
0.0
 30
0.0
  9
$UCSYDIR
 10
0.0
 20
1.0
 30
0.0
  9
$PUCSNAME
  2

  9
$PUCSORG
 10
0.0
 20
0.0
 30
0.0
  9
$PUCSXDIR
 10
1.0
 20
0.0
 30
0.0
  9
$PUCSYDIR
 10
0.0
 20
1.0
 30
0.0
  9
$USERI1
 70
     0
  9
$USERI2
 70
     0
  9
$USERI3
 70
     0
  9
$USERI4
 70
     0
  9
$USERI5
 70
     0
  9
$USERR1
 40
0.0
  9
$USERR2
 40
0.0
  9
$USERR3
 40
0.0
  9
$USERR4
 40
0.0
  9
$USERR5
 40
0.0
  9
$WORLDVIEW
 70
     1
  9
$SHADEDGE
 70
     3
  9
$SHADEDIF
 70
    70
  9
$TILEMODE
 70
     1
  9
$MAXACTVP
 70
    64
  9
$PLIMCHECK
 70
     0
  9
$PEXTMIN
 10
1.0000000000E+20
 20
1.0000000000E+20
 30
1.0000000000E+20
  9
$PEXTMAX
 10
-1.0000000000E+20
 20
-1.0000000000E+20
 30
-1.0000000000E+20
  9
$PLIMMIN
 10
0.0
 20
0.0
  9
$PLIMMAX
 10
420.0
 20
297.0
  9
$UNITMODE
 70
     0
  9
$VISRETAIN
 70
     1
  9
$PLINEGEN
 70
     0
  9
$PSLTSCALE
 70
     1
  0
ENDSEC
  0
SECTION
  2
TABLES
  0
TABLE
  2
VPORT
 70
     1
  0
VPORT
  2
*ACTIVE
 70
     0
 10
0.0
 20
0.0
 11
1.0
 21
1.0
 12
-0.0086954643
 22
16.1741912998
 13
0.0
 23
0.0
 14
10.0
 24
10.0
 15
10.0
 25
10.0
 16
0.0
 26
0.0
 36
1.0
 17
0.0
 27
0.0
 37
0.0
 40
33.2918139916
 41
1.1856968806
 42
50.0
 43
0.0
 44
0.0
 50
0.0
 51
0.0
 71
     0
 72
   100
 73
     1
 74
     3
 75
     0
 76
     0
 77
     0
 78
     0
  0
ENDTAB
  0
TABLE
  2
LTYPE
 70
     6
  0
LTYPE
  2
CONTINUOUS
 70
     0
  3
Solid line
 72
    65
 73
     0
 40
0.0
  0
LTYPE
  2
HIDDEN
 70
     0
  3
Hidden __ __ __ __ __ __ __ __ __ __ __ __ __ __
 72
    65
 73
     2
 40
1.905
 49
1.27
 49
-0.635
  0
LTYPE
  2
PHANTOM
 70
     0
  3
Phantom ______  __  __  ______  __  __  ______
 72
    65
 73
     6
 40
12.7
 49
6.35
 49
-1.27
 49
1.27
 49
-1.27
 49
1.27
 49
-1.27
  0
LTYPE
  2
CENTER
 70
     0
  3
Center ____ _ ____ _ ____ _ ____ _ ____ _ ____
 72
    65
 73
     4
 40
10.16
 49
6.35
 49
-1.27
 49
1.27
 49
-1.27
  0
LTYPE
  2
CENTERX2
 70
     0
  3
Center (2x) ________  __  ________  __  _____
 72
    65
 73
     4
 40
20.32
 49
12.7
 49
-2.54
 49
2.54
 49
-2.54
  0
LTYPE
  2
DOT2
 70
     0
  3
Dot (.5x) ........................................
 72
    65
 73
     2
 40
0.635
 49
0.0
 49
-0.635
  0
ENDTAB
  0
TABLE
  2
LAYER
 70
     1
  0
LAYER
  2
0
 70
     0
 62
     7
  6
CONTINUOUS
  0
ENDTAB
  0
TABLE
  2
STYLE
 70
     1
  0
STYLE
  2
STANDARD
 70
     0
 40
0.0
 41
1.0
 50
0.0
 71
     0
 42
3.5
  3
txt
  4

  0
ENDTAB
  0
TABLE
  2
VIEW
 70
     0
  0
ENDTAB
  0
TABLE
  2
UCS
 70
     0
  0
ENDTAB
  0
TABLE
  2
APPID
 70
     1
  0
APPID
  2
ACAD
 70
     0
  0
ENDTAB
  0
TABLE
  2
DIMSTYLE
 70
     1
  0
DIMSTYLE
  2
ISO-25
 70
     0
  3

  4

  5

  6

  7

 40
1.0
 41
2.5
 42
0.625
 43
3.75
 44
1.25
 45
0.0
 46
0.0
 47
0.0
 48
0.0
140
2.5
141
2.5
142
0.0
143
0.0393700787
144
1.0
145
0.0
146
1.0
147
0.625
 71
     0
 72
     0
 73
     0
 74
     0
 75
     0
 76
     0
 77
     1
 78
     8
170
     0
171
     3
172
     1
173
     0
174
     0
175
     0
176
     0
177
     0
178
     0
  0
ENDTAB
  0
ENDSEC
  0
SECTION
  2
BLOCKS
  0
BLOCK
  8
0
  2
$MODEL_SPACE
 70
     0
 10
0.0
 20
0.0
 30
0.0
  3
$MODEL_SPACE
  1

  0
ENDBLK
  5
21
  8
0
  0
BLOCK
 67
     1
  8
0
  2
$PAPER_SPACE
 70
     0
 10
0.0
 20
0.0
 30
0.0
  3
$PAPER_SPACE
  1

  0
ENDBLK
  5
1D
 67
     1
  8
0
  0
ENDSEC
  0
SECTION
  2
ENTITIES
  0
LINE
  5
44
  8
0
  6
CENTERX2
 62
     7
 10
0.0
 20
8.8351706747
 30
0.0
 11
0.0
 21
32.4937079624
 31
0.0
  0
CIRCLE
  5
88
  8
0
  6
CONTINUOUS
 62
     7
 10
-12.5100000043
 20
15.3
 30
0.0
 40
0.8499999999999961
  0
CIRCLE
  5
89
  8
0
  6
CONTINUOUS
 62
     7
 10
-12.5100000043
 20
4.3
 30
0.0
 40
0.8499999999999979
  0
CIRCLE
  5
8A
  8
0
  6
CONTINUOUS
 62
     7
 10
12.4899999957
 20
15.3
 30
0.0
 40
0.8499999999999961
  0
CIRCLE
  5
9A
  8
0
  6
CONTINUOUS
 62
     7
 10
12.4899999957
 20
4.3
 30
0.0
 40
0.8500000000000014
  0
POLYLINE
  5
275
  8
0
  6
HIDDEN
 62
     7
 66
     1
 10
0.0
 20
0.0
 30
0.0
  0
VERTEX
  5
513
  8
0
  6
HIDDEN
 62
     7
 10
-3.6402116625
 20
4.8046742111
 30
0.0
  0
VERTEX
  5
514
  8
0
  6
HIDDEN
 62
     7
 10
-3.6487234578
 20
4.7467594175
 30
0.0
  0
VERTEX
  5
515
  8
0
  6
HIDDEN
 62
     7
 10
-3.671922218
 20
4.6978519688
 30
0.0
  0
VERTEX
  5
516
  8
0
  6
HIDDEN
 62
     7
 10
-3.6871804119
 20
4.6792726147
 30
0.0
  0
VERTEX
  5
517
  8
0
  6
HIDDEN
 62
     7
 10
-3.7035572259
 20
4.6656374426
 30
0.0
  0
VERTEX
  5
518
  8
0
  6
HIDDEN
 62
     7
 10
-3.7356534081
 20
4.6546746373
 30
0.0
  0
SEQEND
  5
523
  8
0
  6
HIDDEN
 62
     7
  0
POLYLINE
  5
2B3
  8
0
  6
HIDDEN
 62
     7
 66
     1
 10
0.0
 20
0.0
 30
0.0
  0
VERTEX
  5
519
  8
0
  6
HIDDEN
 62
     7
 10
2.392907076
 20
4.6546746373
 30
0.0
  0
VERTEX
  5
51A
  8
0
  6
HIDDEN
 62
     7
 10
2.4028965591
 20
4.6787906459
 30
0.0
  0
VERTEX
  5
51B
  8
0
  6
HIDDEN
 62
     7
 10
2.4063045357
 20
4.7046746373
 30
0.0
  0
SEQEND
  5
522
  8
0
  6
HIDDEN
 62
     7
  0
POLYLINE
  5
2B6
  8
0
  6
HIDDEN
 62
     7
 66
     1
 10
0.0
 20
0.0
 30
0.0
  0
VERTEX
  5
51C
  8
0
  6
HIDDEN
 62
     7
 10
-2.4936954643
 20
4.7046746373
 30
0.0
  0
VERTEX
  5
51D
  8
0
  6
HIDDEN
 62
     7
 10
-2.4902874878
 20
4.6787906459
 30
0.0
  0
VERTEX
  5
51E
  8
0
  6
HIDDEN
 62
     7
 10
-2.4802980047
 20
4.6546746373
 30
0.0
  0
SEQEND
  5
521
  8
0
  6
HIDDEN
 62
     7
  0
LINE
  5
325
  8
0
  6
CONTINUOUS
 62
     7
 10
2.7013045357
 20
0.88078135
 30
0.0
 11
2.7013045357
 21
0.4246746373
 31
0.0
  0
LINE
  5
326
  8
0
  6
CONTINUOUS
 62
     7
 10
2.7013045357
 20
0.4246746373
 30
0.0
 11
1.9613045357
 21
0.4246746373
 31
0.0
  0
LINE
  5
327
  8
0
  6
CONTINUOUS
 62
     7
 10
1.9613045357
 20
0.4246746373
 30
0.0
 11
1.9613045357
 21
0.88078135
 31
0.0
  0
LINE
  5
328
  8
0
  6
CONTINUOUS
 62
     7
 10
2.7013045357
 20
0.5343711884
 30
0.0
 11
1.9613045357
 21
0.5343711884
 31
0.0
  0
LINE
  5
329
  8
0
  6
CONTINUOUS
 62
     7
 10
1.9613045357
 20
0.88078135
 30
0.0
 11
2.7013045357
 21
0.88078135
 31
0.0
  0
LINE
  5
32A
  8
0
  6
CONTINUOUS
 62
     7
 10
-2.7886954643
 20
0.5343711884
 30
0.0
 11
-2.0486954643
 21
0.5343711884
 31
0.0
  0
LINE
  5
32B
  8
0
  6
CONTINUOUS
 62
     7
 10
-2.0486954643
 20
0.4246746373
 30
0.0
 11
-2.0486954643
 21
0.88078135
 31
0.0
  0
LINE
  5
32C
  8
0
  6
CONTINUOUS
 62
     7
 10
-2.0486954643
 20
0.4246746373
 30
0.0
 11
-2.7886954643
 21
0.4246746373
 31
0.0
  0
LINE
  5
32D
  8
0
  6
CONTINUOUS
 62
     7
 10
-2.7886954643
 20
0.88078135
 30
0.0
 11
-2.7886954643
 21
0.4246746373
 31
0.0
  0
LINE
  5
32E
  8
0
  6
CONTINUOUS
 62
     7
 10
-2.0486954643
 20
0.88078135
 30
0.0
 11
-2.7886954643
 21
0.88078135
 31
0.0
  0
LINE
  5
32F
  8
0
  6
CONTINUOUS
 62
     7
 10
3.7163045357
 20
-0.1453253627
 30
0.0
 11
-3.8036954643
 21
-0.1453253627
 31
0.0
  0
LINE
  5
330
  8
0
  6
CONTINUOUS
 62
     7
 10
-2.0486954643
 20
2.3046746373
 30
0.0
 11
-2.0486954643
 21
1.1269781947
 31
0.0
  0
LINE
  5
331
  8
0
  6
CONTINUOUS
 62
     7
 10
-2.7886954643
 20
1.1269781947
 30
0.0
 11
-2.7886954643
 21
2.3046746373
 31
0.0
  0
LINE
  5
332
  8
0
  6
CONTINUOUS
 62
     7
 10
-2.8886954643
 20
0.953773114
 30
0.0
 11
-2.7886954643
 21
1.1269781947
 31
0.0
  0
LINE
  5
333
  8
0
  6
CONTINUOUS
 62
     7
 10
-2.0486954643
 20
1.1269781947
 30
0.0
 11
-1.9486954643
 21
0.953773114
 31
0.0
  0
LINE
  5
334
  8
0
  6
CONTINUOUS
 62
     7
 10
2.7013045357
 20
2.3046746373
 30
0.0
 11
2.7013045357
 21
1.1269781947
 31
0.0
  0
LINE
  5
335
  8
0
  6
CONTINUOUS
 62
     7
 10
1.9613045357
 20
1.1269781947
 30
0.0
 11
1.9613045357
 21
2.3046746373
 31
0.0
  0
LINE
  5
336
  8
0
  6
CONTINUOUS
 62
     7
 10
1.8613045357
 20
0.953773114
 30
0.0
 11
1.9613045357
 21
1.1269781947
 31
0.0
  0
LINE
  5
337
  8
0
  6
CONTINUOUS
 62
     7
 10
2.7013045357
 20
1.1269781947
 30
0.0
 11
2.8013045357
 21
0.953773114
 31
0.0
  0
LINE
  5
338
  8
0
  6
CONTINUOUS
 62
     7
 10
3.7163045357
 20
4.6546746373
 30
0.0
 11
3.7163045357
 21
-0.1453253627
 31
0.0
  0
LINE
  5
339
  8
0
  6
CONTINUOUS
 62
     7
 10
-3.8036954643
 20
-0.1453253627
 30
0.0
 11
-3.8036954643
 21
4.6546746373
 31
0.0
  0
LINE
  5
33A
  8
0
  6
CONTINUOUS
 62
     7
 10
-4.8436954643
 20
1.0546746373
 30
0.0
 11
-4.8436954643
 21
2.5546746373
 31
0.0
  0
LINE
  5
33B
  8
0
  6
CONTINUOUS
 62
     7
 10
-4.9236954643
 20
1.2046746373
 30
0.0
 11
-4.8436954643
 21
1.1246746373
 31
0.0
  0
LINE
  5
33C
  8
0
  6
CONTINUOUS
 62
     7
 10
-4.9236954643
 20
1.2046746373
 30
0.0
 11
-4.9236954643
 21
2.4046746373
 31
0.0
  0
LINE
  5
33D
  8
0
  6
CONTINUOUS
 62
     7
 10
-4.9236954643
 20
1.2046746373
 30
0.0
 11
-5.0636954643
 21
1.2046746373
 31
0.0
  0
LINE
  5
33E
  8
0
  6
CONTINUOUS
 62
     7
 10
-5.0636954643
 20
1.2046746373
 30
0.0
 11
-5.0636954643
 21
2.4046746373
 31
0.0
  0
LINE
  5
33F
  8
0
  6
CONTINUOUS
 62
     7
 10
-5.0636954643
 20
1.2046746373
 30
0.0
 11
-5.1436954643
 21
1.1246746373
 31
0.0
  0
LINE
  5
340
  8
0
  6
CONTINUOUS
 62
     7
 10
4.9763045357
 20
1.2046746373
 30
0.0
 11
4.8363045357
 21
1.2046746373
 31
0.0
  0
LINE
  5
341
  8
0
  6
CONTINUOUS
 62
     7
 10
4.8363045357
 20
2.4046746373
 30
0.0
 11
4.8363045357
 21
1.2046746373
 31
0.0
  0
LINE
  5
342
  8
0
  6
CONTINUOUS
 62
     7
 10
4.9763045357
 20
1.2046746373
 30
0.0
 11
4.9763045357
 21
2.4046746373
 31
0.0
  0
LINE
  5
343
  8
0
  6
CONTINUOUS
 62
     7
 10
5.0563045357
 20
2.5546746373
 30
0.0
 11
5.0563045357
 21
1.0546746373
 31
0.0
  0
LINE
  5
344
  8
0
  6
CONTINUOUS
 62
     7
 10
4.9763045357
 20
1.2046746373
 30
0.0
 11
5.0563045357
 21
1.1246746373
 31
0.0
  0
LINE
  5
345
  8
0
  6
CONTINUOUS
 62
     7
 10
4.7563045357
 20
1.0546746373
 30
0.0
 11
4.7563045357
 21
2.5546746373
 31
0.0
  0
LINE
  5
346
  8
0
  6
CONTINUOUS
 62
     7
 10
4.7563045357
 20
1.1246746373
 30
0.0
 11
4.8363045357
 21
1.2046746373
 31
0.0
  0
LINE
  5
347
  8
0
  6
CONTINUOUS
 62
     7
 10
-3.5036954643
 20
1.0546746373
 30
0.0
 11
-5.1436954643
 21
1.0546746373
 31
0.0
  0
LINE
  5
348
  8
0
  6
CONTINUOUS
 62
     7
 10
5.0563045357
 20
1.0546746373
 30
0.0
 11
3.4163045357
 21
1.0546746373
 31
0.0
  0
LINE
  5
349
  8
0
  6
CONTINUOUS
 62
     7
 10
2.1163045357
 20
0.8546746373
 30
0.0
 11
2.1163045357
 21
2.7546746373
 31
0.0
  0
LINE
  5
34A
  8
0
  6
CONTINUOUS
 62
     7
 10
-2.2036954643
 20
2.7546746373
 30
0.0
 11
-2.2036954643
 21
0.8546746373
 31
0.0
  0
LINE
  5
34D
  8
0
  6
CONTINUOUS
 62
     7
 10
9.1313045357
 20
18.3046746373
 30
0.0
 11
9.1313045357
 21
17.2046746373
 31
0.0
  0
LINE
  5
34E
  8
0
  6
CONTINUOUS
 62
     7
 10
9.1313045357
 20
17.2046746373
 30
0.0
 11
10.6313045357
 21
17.2046746373
 31
0.0
  0
LINE
  5
34F
  8
0
  6
CONTINUOUS
 62
     7
 10
10.6313045357
 20
17.2046746373
 30
0.0
 11
10.6313045357
 21
18.3046746373
 31
0.0
  0
LINE
  5
350
  8
0
  6
CONTINUOUS
 62
     7
 10
19.3413045357
 20
18.3046746373
 30
0.0
 11
10.6313045357
 21
18.3046746373
 31
0.0
  0
LINE
  5
351
  8
0
  6
CONTINUOUS
 62
     7
 10
-9.1486954643
 20
1.3046746373
 30
0.0
 11
-9.1486954643
 21
2.4046746373
 31
0.0
  0
LINE
  5
352
  8
0
  6
CONTINUOUS
 62
     7
 10
-9.1486954643
 20
2.4046746373
 30
0.0
 11
-10.6486954643
 21
2.4046746373
 31
0.0
  0
LINE
  5
353
  8
0
  6
CONTINUOUS
 62
     7
 10
-10.6486954643
 20
2.4046746373
 30
0.0
 11
-10.6486954643
 21
1.3046746373
 31
0.0
  0
LINE
  5
354
  8
0
  6
CONTINUOUS
 62
     7
 10
-10.6486954643
 20
1.3046746373
 30
0.0
 11
-19.3586954643
 21
1.3046746373
 31
0.0
  0
LINE
  5
356
  8
0
  6
CONTINUOUS
 62
     7
 10
19.3413045357
 20
1.3046746373
 30
0.0
 11
-9.1486954643
 21
1.3046746373
 31
0.0
  0
LINE
  5
357
  8
0
  6
CONTINUOUS
 62
     7
 10
-19.3586954643
 20
1.3046746373
 30
0.0
 11
-19.3586954643
 21
18.3046746373
 31
0.0
  0
LINE
  5
358
  8
0
  6
CONTINUOUS
 62
     7
 10
-8.0
 20
18.3046746373
 30
0.0
 11
-19.3586954643
 21
18.3046746373
 31
0.0
  0
LINE
  5
359
  8
0
  6
CONTINUOUS
 62
     7
 10
19.3413045357
 20
1.3046746373
 30
0.0
 11
19.3413045357
 21
18.3046746373
 31
0.0
  0
LINE
  5
35A
  8
0
  6
CONTINUOUS
 62
     7
 10
8.0
 20
18.3046746373
 30
0.0
 11
9.1313045357
 21
18.3046746373
 31
0.0
  0
LINE
  5
35B
  8
0
  6
CONTINUOUS
 62
     8
 10
3.2163045357
 20
4.6546746373
 30
0.0
 11
3.2163045357
 21
-0.1453253627
 31
0.0
  0
LINE
  5
35C
  8
0
  6
CONTINUOUS
 62
     8
 10
-3.3036954643
 20
-0.1453253627
 30
0.0
 11
-3.3036954643
 21
4.6546746373
 31
0.0
  0
LINE
  5
35D
  8
0
  6
CONTINUOUS
 62
     8
 10
-3.9036954643
 20
2.1324614855
 30
0.0
 11
-3.9036954643
 21
1.0546746373
 31
0.0
  0
LINE
  5
35E
  8
0
  6
CONTINUOUS
 62
     8
 10
3.8163045357
 20
1.0546746373
 30
0.0
 11
3.8163045357
 21
2.1324614855
 31
0.0
  0
LINE
  5
35F
  8
0
  6
CONTINUOUS
 62
     8
 10
-4.7436954643
 20
1.0546746373
 30
0.0
 11
-4.7436954643
 21
2.5546746373
 31
0.0
  0
LINE
  5
360
  8
0
  6
CONTINUOUS
 62
     8
 10
4.6563045357
 20
2.5546746373
 30
0.0
 11
4.6563045357
 21
1.0546746373
 31
0.0
  0
LINE
  5
37D
  8
0
  6
HIDDEN
 62
     7
 10
-0.7436954643
 20
3.8546746373
 30
0.0
 11
-2.0386954643
 21
3.8546746373
 31
0.0
  0
LINE
  5
37E
  8
0
  6
HIDDEN
 62
     7
 10
-0.7436954643
 20
4.0546746373
 30
0.0
 11
-0.7436954643
 21
3.8546746373
 31
0.0
  0
LINE
  5
37F
  8
0
  6
HIDDEN
 62
     7
 10
0.6563045357
 20
4.0546746373
 30
0.0
 11
-0.7436954643
 21
4.0546746373
 31
0.0
  0
LINE
  5
380
  8
0
  6
HIDDEN
 62
     7
 10
0.6563045357
 20
3.8546746373
 30
0.0
 11
0.6563045357
 21
4.0546746373
 31
0.0
  0
LINE
  5
381
  8
0
  6
HIDDEN
 62
     7
 10
1.9513045357
 20
3.8546746373
 30
0.0
 11
0.6563045357
 21
3.8546746373
 31
0.0
  0
LINE
  5
382
  8
0
  6
HIDDEN
 62
     7
 10
2.0513045357
 20
4.6546746373
 30
0.0
 11
2.0513045357
 21
3.9546746373
 31
0.0
  0
LINE
  5
383
  8
0
  6
HIDDEN
 62
     7
 10
-3.8036954643
 20
4.6546746373
 30
0.0
 11
3.7163045357
 21
4.6546746373
 31
0.0
  0
LINE
  5
384
  8
0
  6
HIDDEN
 62
     7
 10
-2.1386954643
 20
3.9546746373
 30
0.0
 11
-2.1386954643
 21
4.6546746373
 31
0.0
  0
LINE
  5
385
  8
0
  6
HIDDEN
 62
     7
 10
-2.7886954643
 20
2.3046746373
 30
0.0
 11
-2.0486954643
 21
2.3046746373
 31
0.0
  0
LINE
  5
386
  8
0
  6
HIDDEN
 62
     7
 10
1.9613045357
 20
2.3046746373
 30
0.0
 11
2.7013045357
 21
2.3046746373
 31
0.0
  0
LINE
  5
387
  8
0
  6
HIDDEN
 62
     7
 10
1.4844755984
 20
4.1546746373
 30
0.0
 11
1.9513045357
 21
4.1546746373
 31
0.0
  0
LINE
  5
388
  8
0
  6
HIDDEN
 62
     7
 10
1.8275236217
 20
4.1546746373
 30
0.0
 11
1.8275236217
 21
4.6546746373
 31
0.0
  0
LINE
  5
389
  8
0
  6
HIDDEN
 62
     7
 10
-1.9149145503
 20
4.6546746373
 30
0.0
 11
-1.9149145503
 21
4.1546746373
 31
0.0
  0
LINE
  5
38A
  8
0
  6
HIDDEN
 62
     7
 10
-2.0386954643
 20
4.1546746373
 30
0.0
 11
-1.5718665271
 21
4.1546746373
 31
0.0
  0
LINE
  5
38B
  8
0
  6
HIDDEN
 62
     7
 10
3.0013045357
 20
4.6546746373
 30
0.0
 11
3.0013045357
 21
5.1646746373
 31
0.0
  0
LINE
  5
38C
  8
0
  6
HIDDEN
 62
     7
 10
1.9513045357
 20
4.6546746373
 30
0.0
 11
1.9513045357
 21
5.1646746373
 31
0.0
  0
LINE
  5
38D
  8
0
  6
HIDDEN
 62
     7
 10
-2.0386954643
 20
4.6546746373
 30
0.0
 11
-2.0386954643
 21
5.1646746373
 31
0.0
  0
LINE
  5
38E
  8
0
  6
HIDDEN
 62
     7
 10
-3.0886954643
 20
4.6546746373
 30
0.0
 11
-3.0886954643
 21
5.1646746373
 31
0.0
  0
LINE
  5
38F
  8
0
  6
HIDDEN
 62
     7
 10
0.6563045357
 20
4.2546746373
 30
0.0
 11
-0.7436954643
 21
4.2546746373
 31
0.0
  0
LINE
  5
390
  8
0
  6
HIDDEN
 62
     7
 10
-0.7436954643
 20
4.2546746373
 30
0.0
 11
-0.7436954643
 21
5.1646746373
 31
0.0
  0
LINE
  5
391
  8
0
  6
HIDDEN
 62
     7
 10
0.6563045357
 20
5.1646746373
 30
0.0
 11
0.6563045357
 21
4.2546746373
 31
0.0
  0
LINE
  5
392
  8
0
  6
HIDDEN
 62
     7
 10
3.3663045357
 20
5.1646746373
 30
0.0
 11
-3.4536954643
 21
5.1646746373
 31
0.0
  0
LINE
  5
393
  8
0
  6
HIDDEN
 62
     7
 10
-1.5718665271
 20
4.6546746373
 30
0.0
 11
-1.5718665271
 21
4.1546746373
 31
0.0
  0
LINE
  5
394
  8
0
  6
HIDDEN
 62
     7
 10
1.4844755984
 20
4.1546746373
 30
0.0
 11
1.4844755984
 21
4.6546746373
 31
0.0
  0
LINE
  5
395
  8
0
  6
HIDDEN
 62
     7
 10
-3.7036954643
 20
-0.1453253627
 30
0.0
 11
-3.5967956349
 21
-0.0836067174
 31
0.0
  0
LINE
  5
396
  8
0
  6
HIDDEN
 62
     7
 10
3.5094047062
 20
-0.0836067174
 30
0.0
 11
3.6163045357
 21
-0.1453253627
 31
0.0
  0
LINE
  5
397
  8
0
  6
HIDDEN
 62
     7
 10
3.5094047062
 20
-0.0836067174
 30
0.0
 11
-3.5967956349
 21
-0.0836067174
 31
0.0
  0
LINE
  5
398
  8
0
  6
HIDDEN
 62
     7
 10
-2.0486954643
 20
0.6844822584
 30
0.0
 11
-2.7886954643
 21
0.6844822584
 31
0.0
  0
LINE
  5
399
  8
0
  6
HIDDEN
 62
     7
 10
2.7013045357
 20
0.6844822584
 30
0.0
 11
1.9613045357
 21
0.6844822584
 31
0.0
  0
LINE
  5
39A
  8
0
  6
HIDDEN
 62
     7
 10
-5.0636954643
 20
5.4046746373
 30
0.0
 11
-5.1436954643
 21
5.3246746373
 31
0.0
  0
LINE
  5
39B
  8
0
  6
HIDDEN
 62
     7
 10
-4.9236954643
 20
5.4046746373
 30
0.0
 11
-5.0636954643
 21
5.4046746373
 31
0.0
  0
LINE
  5
39C
  8
0
  6
HIDDEN
 62
     7
 10
-4.8436954643
 20
5.3246746373
 30
0.0
 11
-4.9236954643
 21
5.4046746373
 31
0.0
  0
LINE
  5
39D
  8
0
  6
HIDDEN
 62
     7
 10
-4.8436954643
 20
6.3546746373
 30
0.0
 11
-4.8436954643
 21
5.2546746373
 31
0.0
  0
LINE
  5
39E
  8
0
  6
HIDDEN
 62
     7
 10
-5.1436954643
 20
5.2546746373
 30
0.0
 11
-3.549243894
 21
5.2546746373
 31
0.0
  0
LINE
  5
39F
  8
0
  6
HIDDEN
 62
     7
 10
-5.1436954643
 20
5.2546746373
 30
0.0
 11
-5.1436954643
 21
6.3546746373
 31
0.0
  0
LINE
  5
3A0
  8
0
  6
HIDDEN
 62
     7
 10
-5.0636954643
 20
6.2046746373
 30
0.0
 11
-4.9236954643
 21
6.2046746373
 31
0.0
  0
LINE
  5
3A1
  8
0
  6
HIDDEN
 62
     7
 10
-4.9236954643
 20
6.2046746373
 30
0.0
 11
-4.9236954643
 21
5.4046746373
 31
0.0
  0
LINE
  5
3A2
  8
0
  6
HIDDEN
 62
     7
 10
-5.0636954643
 20
5.4046746373
 30
0.0
 11
-5.0636954643
 21
6.2046746373
 31
0.0
  0
LINE
  5
3A3
  8
0
  6
HIDDEN
 62
     7
 10
-5.1436954643
 20
6.2846746373
 30
0.0
 11
-5.0636954643
 21
6.2046746373
 31
0.0
  0
LINE
  5
3A4
  8
0
  6
HIDDEN
 62
     7
 10
5.0563045357
 20
5.3246746373
 30
0.0
 11
4.9763045357
 21
5.4046746373
 31
0.0
  0
LINE
  5
3A5
  8
0
  6
HIDDEN
 62
     7
 10
4.9763045357
 20
6.2046746373
 30
0.0
 11
4.9763045357
 21
5.4046746373
 31
0.0
  0
LINE
  5
3A6
  8
0
  6
HIDDEN
 62
     7
 10
4.9763045357
 20
6.2046746373
 30
0.0
 11
5.0563045357
 21
6.2846746373
 31
0.0
  0
LINE
  5
3A7
  8
0
  6
HIDDEN
 62
     7
 10
5.0563045357
 20
6.3546746373
 30
0.0
 11
5.0563045357
 21
5.2546746373
 31
0.0
  0
LINE
  5
3A8
  8
0
  6
HIDDEN
 62
     7
 10
4.8363045357
 20
5.4046746373
 30
0.0
 11
4.7563045357
 21
5.3246746373
 31
0.0
  0
LINE
  5
3A9
  8
0
  6
HIDDEN
 62
     7
 10
4.9763045357
 20
5.4046746373
 30
0.0
 11
4.8363045357
 21
5.4046746373
 31
0.0
  0
LINE
  5
3AA
  8
0
  6
HIDDEN
 62
     7
 10
4.7563045357
 20
6.2846746373
 30
0.0
 11
4.8363045357
 21
6.2046746373
 31
0.0
  0
LINE
  5
3AB
  8
0
  6
HIDDEN
 62
     7
 10
4.7563045357
 20
5.2546746373
 30
0.0
 11
4.7563045357
 21
6.3546746373
 31
0.0
  0
LINE
  5
3AC
  8
0
  6
HIDDEN
 62
     7
 10
4.8363045357
 20
6.2046746373
 30
0.0
 11
4.9763045357
 21
6.2046746373
 31
0.0
  0
LINE
  5
3AD
  8
0
  6
HIDDEN
 62
     7
 10
-4.9236954643
 20
6.2046746373
 30
0.0
 11
-4.8436954643
 21
6.2846746373
 31
0.0
  0
LINE
  5
3AE
  8
0
  6
HIDDEN
 62
     7
 10
4.8363045357
 20
5.4046746373
 30
0.0
 11
4.8363045357
 21
6.2046746373
 31
0.0
  0
LINE
  5
3AF
  8
0
  6
HIDDEN
 62
     7
 10
-4.8436954643
 20
2.4846746373
 30
0.0
 11
-4.9236954643
 21
2.4046746373
 31
0.0
  0
LINE
  5
3B0
  8
0
  6
HIDDEN
 62
     7
 10
-5.0636954643
 20
2.4046746373
 30
0.0
 11
-4.9236954643
 21
2.4046746373
 31
0.0
  0
LINE
  5
3B1
  8
0
  6
HIDDEN
 62
     7
 10
-5.1436954643
 20
2.4846746373
 30
0.0
 11
-5.0636954643
 21
2.4046746373
 31
0.0
  0
LINE
  5
3B2
  8
0
  6
HIDDEN
 62
     7
 10
-5.1436954643
 20
1.0546746373
 30
0.0
 11
-5.1436954643
 21
2.5546746373
 31
0.0
  0
LINE
  5
3B3
  8
0
  6
HIDDEN
 62
     7
 10
-4.1836954643
 20
2.5546746373
 30
0.0
 11
-5.1436954643
 21
2.5546746373
 31
0.0
  0
LINE
  5
3B4
  8
0
  6
HIDDEN
 62
     7
 10
4.9763045357
 20
2.4046746373
 30
0.0
 11
4.8363045357
 21
2.4046746373
 31
0.0
  0
LINE
  5
3B5
  8
0
  6
HIDDEN
 62
     7
 10
4.9763045357
 20
2.4046746373
 30
0.0
 11
5.0563045357
 21
2.4846746373
 31
0.0
  0
LINE
  5
3B6
  8
0
  6
HIDDEN
 62
     7
 10
4.7563045357
 20
2.4846746373
 30
0.0
 11
4.8363045357
 21
2.4046746373
 31
0.0
  0
LINE
  5
3B7
  8
0
  6
HIDDEN
 62
     7
 10
5.0563045357
 20
2.5546746373
 30
0.0
 11
4.0963045357
 21
2.5546746373
 31
0.0
  0
LINE
  5
3B8
  8
0
  6
HIDDEN
 62
     7
 10
3.4886940281
 20
-0.0677148551
 30
0.0
 11
-3.5760849568
 21
-0.0677148551
 31
0.0
  0
LINE
  5
3B9
  8
0
  6
HIDDEN
 62
     7
 10
3.4163045357
 20
0.0046746373
 30
0.0
 11
3.4886940281
 21
-0.0677148551
 31
0.0
  0
LINE
  5
3BA
  8
0
  6
HIDDEN
 62
     7
 10
3.4163045357
 20
0.0046746373
 30
0.0
 11
-3.5036954643
 21
0.0046746373
 31
0.0
  0
LINE
  5
3BB
  8
0
  6
HIDDEN
 62
     7
 10
-3.5760849568
 20
-0.0677148551
 30
0.0
 11
-3.5036954643
 21
0.0046746373
 31
0.0
  0
LINE
  5
3BC
  8
0
  6
HIDDEN
 62
     7
 10
-3.5036954643
 20
0.0046746373
 30
0.0
 11
-3.5036954643
 21
3.3546746373
 31
0.0
  0
LINE
  5
3BD
  8
0
  6
HIDDEN
 62
     7
 10
3.4163045357
 20
3.3546746373
 30
0.0
 11
3.4163045357
 21
0.0046746373
 31
0.0
  0
LINE
  5
3BE
  8
0
  6
HIDDEN
 62
     7
 10
-3.5036954643
 20
3.3546746373
 30
0.0
 11
3.4163045357
 21
3.3546746373
 31
0.0
  0
LINE
  5
3BF
  8
0
  6
HIDDEN
 62
     7
 10
3.1663045357
 20
4.6546746373
 30
0.0
 11
3.1663045357
 21
5.1646746373
 31
0.0
  0
LINE
  5
3C0
  8
0
  6
HIDDEN
 62
     7
 10
-3.2536954643
 20
5.1646746373
 30
0.0
 11
-3.2536954643
 21
4.6546746373
 31
0.0
  0
LINE
  5
3C1
  8
0
  6
HIDDEN
 62
     7
 10
3.3663045357
 20
5.8046746373
 30
0.0
 11
3.3663045357
 21
4.6546746373
 31
0.0
  0
LINE
  5
3C2
  8
0
  6
HIDDEN
 62
     7
 10
-3.4536954643
 20
4.6546746373
 30
0.0
 11
-3.4536954643
 21
5.8046746373
 31
0.0
  0
LINE
  5
3C3
  8
0
  6
HIDDEN
 62
     7
 10
-1.6486954643
 20
4.6546746373
 30
0.0
 11
-1.6486954643
 21
5.1646746373
 31
0.0
  0
LINE
  5
3C4
  8
0
  6
HIDDEN
 62
     7
 10
1.5613045357
 20
5.1646746373
 30
0.0
 11
1.5613045357
 21
4.6546746373
 31
0.0
  0
LINE
  5
3C5
  8
0
  6
HIDDEN
 62
     7
 10
3.5963045357
 20
2.2046746099
 30
0.0
 11
3.5963045357
 21
2.0546746373
 31
0.0
  0
LINE
  5
3C6
  8
0
  6
HIDDEN
 62
     7
 10
3.7163045357
 20
2.2226746373
 30
0.0
 11
3.5963045357
 21
2.2046746099
 31
0.0
  0
LINE
  5
3C7
  8
0
  6
HIDDEN
 62
     7
 10
3.7163045357
 20
2.3546746373
 30
0.0
 11
3.4163045357
 21
2.3546746373
 31
0.0
  0
LINE
  5
3C8
  8
0
  6
HIDDEN
 62
     7
 10
3.5963045357
 20
2.0546746373
 30
0.0
 11
3.4163045357
 21
2.0546746373
 31
0.0
  0
LINE
  5
3C9
  8
0
  6
HIDDEN
 62
     7
 10
-3.6836954643
 20
2.2046746373
 30
0.0
 11
-3.6836954643
 21
2.0546746373
 31
0.0
  0
LINE
  5
3CA
  8
0
  6
HIDDEN
 62
     7
 10
-3.5036954643
 20
2.0546746373
 30
0.0
 11
-3.6836954643
 21
2.0546746373
 31
0.0
  0
LINE
  5
3CB
  8
0
  6
HIDDEN
 62
     7
 10
-3.8036954643
 20
2.3546746373
 30
0.0
 11
-3.5036954643
 21
2.3546746373
 31
0.0
  0
LINE
  5
3CC
  8
0
  6
HIDDEN
 62
     7
 10
-3.8036952223
 20
2.2226745615
 30
0.0
 11
-3.6836954643
 21
2.2046746373
 31
0.0
  0
LINE
  5
3CD
  8
0
  6
HIDDEN
 62
     7
 10
-2.3036954643
 20
0.7546746373
 30
0.0
 11
-3.8036954643
 21
0.7546746373
 31
0.0
  0
LINE
  5
3CE
  8
0
  6
HIDDEN
 62
     7
 10
3.7163045357
 20
0.7546746373
 30
0.0
 11
2.2163045357
 21
0.7546746373
 31
0.0
  0
LINE
  5
3CF
  8
0
  6
HIDDEN
 62
     7
 10
-1.7336954643
 20
0.8246746373
 30
0.0
 11
1.6463045357
 21
0.8246746373
 31
0.0
  0
LINE
  5
3D0
  8
0
  6
HIDDEN
 62
     7
 10
-1.7336954643
 20
3.3546746373
 30
0.0
 11
-1.7336954643
 21
0.8046746373
 31
0.0
  0
LINE
  5
3D1
  8
0
  6
HIDDEN
 62
     7
 10
1.6463045357
 20
0.8046746373
 30
0.0
 11
1.6463045357
 21
3.3546746373
 31
0.0
  0
LINE
  5
3D2
  8
0
  6
HIDDEN
 62
     7
 10
-1.5836954643
 20
0.6546746373
 30
0.0
 11
-1.7336954643
 21
0.8046746373
 31
0.0
  0
LINE
  5
3D3
  8
0
  6
HIDDEN
 62
     7
 10
1.6463045357
 20
0.8046746373
 30
0.0
 11
1.4963045357
 21
0.6546746373
 31
0.0
  0
LINE
  5
3D4
  8
0
  6
HIDDEN
 62
     7
 10
1.4963045357
 20
0.6546746373
 30
0.0
 11
-1.5836954643
 21
0.6546746373
 31
0.0
  0
LINE
  5
3D5
  8
0
  6
HIDDEN
 62
     7
 10
3.7595134228
 20
2.0955439276
 30
0.0
 11
3.7135823133
 21
2.0754077412
 31
0.0
  0
LINE
  5
3D6
  8
0
  6
HIDDEN
 62
     7
 10
-3.8009732416
 20
2.0754077412
 30
0.0
 11
-3.8469042611
 21
2.0955438881
 31
0.0
  0
LINE
  5
3D7
  8
0
  6
HIDDEN
 62
     7
 10
-4.7436954643
 20
5.2546746373
 30
0.0
 11
-4.7436954643
 21
6.3546746373
 31
0.0
  0
LINE
  5
3D8
  8
0
  6
HIDDEN
 62
     7
 10
4.6563045357
 20
6.3546746373
 30
0.0
 11
4.6563045357
 21
5.2546746373
 31
0.0
  0
LINE
  5
3D9
  8
0
  6
HIDDEN
 62
     7
 10
3.7163045357
 20
2.5046746373
 30
0.0
 11
3.4163045357
 21
2.5046746373
 31
0.0
  0
LINE
  5
3DA
  8
0
  6
HIDDEN
 62
     7
 10
-3.5036954643
 20
2.5046746373
 30
0.0
 11
-3.8036954643
 21
2.5046746373
 31
0.0
  0
LINE
  5
3DB
  8
0
  6
HIDDEN
 62
     7
 10
2.2813045357
 20
6.1546746373
 30
0.0
 11
2.2813045357
 21
6.3546746373
 31
0.0
  0
LINE
  5
3DC
  8
0
  6
HIDDEN
 62
     7
 10
2.5813045357
 20
6.0546746373
 30
0.0
 11
2.3813045357
 21
6.0546746373
 31
0.0
  0
LINE
  5
3DD
  8
0
  6
HIDDEN
 62
     7
 10
2.6813045357
 20
6.3546746373
 30
0.0
 11
2.6813045357
 21
6.1546746373
 31
0.0
  0
LINE
  5
3DE
  8
0
  6
HIDDEN
 62
     7
 10
3.0063045357
 20
6.3546746373
 30
0.0
 11
3.0063045357
 21
5.1646746373
 31
0.0
  0
LINE
  5
3DF
  8
0
  6
HIDDEN
 62
     7
 10
1.9563045357
 20
5.1646746373
 30
0.0
 11
1.9563045357
 21
6.3546746373
 31
0.0
  0
LINE
  5
3E0
  8
0
  6
HIDDEN
 62
     7
 10
-1.4686954643
 20
6.0546746373
 30
0.0
 11
-1.2186954643
 21
6.0546746373
 31
0.0
  0
LINE
  5
3E1
  8
0
  6
HIDDEN
 62
     7
 10
-1.4686954643
 20
5.4246746373
 30
0.0
 11
-1.4686954643
 21
6.6546746373
 31
0.0
  0
LINE
  5
3E2
  8
0
  6
HIDDEN
 62
     7
 10
-1.2186954643
 20
6.6546746373
 30
0.0
 11
-1.4686954643
 21
6.6546746373
 31
0.0
  0
LINE
  5
3E3
  8
0
  6
HIDDEN
 62
     7
 10
-1.2186954643
 20
6.6546746373
 30
0.0
 11
-1.2186954643
 21
5.4246746373
 31
0.0
  0
LINE
  5
3E4
  8
0
  6
HIDDEN
 62
     7
 10
-3.0936954643
 20
5.1646746373
 30
0.0
 11
-3.0936954643
 21
6.3546746373
 31
0.0
  0
LINE
  5
3E5
  8
0
  6
HIDDEN
 62
     7
 10
-2.7686954643
 20
6.1546746373
 30
0.0
 11
-2.7686954643
 21
6.3546746373
 31
0.0
  0
LINE
  5
3E6
  8
0
  6
HIDDEN
 62
     7
 10
-2.4686954643
 20
6.0546746373
 30
0.0
 11
-2.6686954643
 21
6.0546746373
 31
0.0
  0
LINE
  5
3E7
  8
0
  6
HIDDEN
 62
     7
 10
-2.3686954643
 20
6.3546746373
 30
0.0
 11
-2.3686954643
 21
6.1546746373
 31
0.0
  0
LINE
  5
3E8
  8
0
  6
HIDDEN
 62
     7
 10
-2.0436954643
 20
6.3546746373
 30
0.0
 11
-5.1436954643
 21
6.3546746373
 31
0.0
  0
LINE
  5
3E9
  8
0
  6
HIDDEN
 62
     7
 10
-2.0436954643
 20
6.3546746373
 30
0.0
 11
-2.0436954643
 21
5.1646746373
 31
0.0
  0
LINE
  5
3EA
  8
0
  6
HIDDEN
 62
     7
 10
1.1313045357
 20
6.0546746373
 30
0.0
 11
1.3813045357
 21
6.0546746373
 31
0.0
  0
LINE
  5
3EB
  8
0
  6
HIDDEN
 62
     7
 10
1.1313045357
 20
5.4246746373
 30
0.0
 11
1.1313045357
 21
6.6546746373
 31
0.0
  0
LINE
  5
3EC
  8
0
  6
HIDDEN
 62
     7
 10
1.3813045357
 20
6.6546746373
 30
0.0
 11
1.3813045357
 21
5.4246746373
 31
0.0
  0
LINE
  5
3ED
  8
0
  6
HIDDEN
 62
     7
 10
1.1313045357
 20
6.6546746373
 30
0.0
 11
1.3813045357
 21
6.6546746373
 31
0.0
  0
LINE
  5
3EE
  8
0
  6
HIDDEN
 62
     7
 10
0.4813045357
 20
6.0546746373
 30
0.0
 11
0.7313045357
 21
6.0546746373
 31
0.0
  0
LINE
  5
3EF
  8
0
  6
HIDDEN
 62
     7
 10
0.4813045357
 20
5.4246746373
 30
0.0
 11
0.4813045357
 21
6.6546746373
 31
0.0
  0
LINE
  5
3F0
  8
0
  6
HIDDEN
 62
     7
 10
0.4813045357
 20
6.6546746373
 30
0.0
 11
0.7313045357
 21
6.6546746373
 31
0.0
  0
LINE
  5
3F1
  8
0
  6
HIDDEN
 62
     7
 10
0.7313045357
 20
6.6546746373
 30
0.0
 11
0.7313045357
 21
5.2546746373
 31
0.0
  0
LINE
  5
3F2
  8
0
  6
HIDDEN
 62
     7
 10
-0.1686954643
 20
6.0546746373
 30
0.0
 11
0.0813045357
 21
6.0546746373
 31
0.0
  0
LINE
  5
3F3
  8
0
  6
HIDDEN
 62
     7
 10
0.0813045357
 20
6.6546746373
 30
0.0
 11
0.0813045357
 21
5.4246746373
 31
0.0
  0
LINE
  5
3F4
  8
0
  6
HIDDEN
 62
     7
 10
-0.1686954643
 20
5.4246746373
 30
0.0
 11
-0.1686954643
 21
6.6546746373
 31
0.0
  0
LINE
  5
3F5
  8
0
  6
HIDDEN
 62
     7
 10
-0.1686954643
 20
6.6546746373
 30
0.0
 11
0.0813045357
 21
6.6546746373
 31
0.0
  0
LINE
  5
3F6
  8
0
  6
HIDDEN
 62
     7
 10
-0.8186954643
 20
6.0546746373
 30
0.0
 11
-0.5686954643
 21
6.0546746373
 31
0.0
  0
LINE
  5
3F7
  8
0
  6
HIDDEN
 62
     7
 10
-0.8186954643
 20
5.2546746373
 30
0.0
 11
-0.8186954643
 21
6.6546746373
 31
0.0
  0
LINE
  5
3F8
  8
0
  6
HIDDEN
 62
     7
 10
-0.5686954643
 20
6.6546746373
 30
0.0
 11
-0.5686954643
 21
5.4246746373
 31
0.0
  0
LINE
  5
3F9
  8
0
  6
HIDDEN
 62
     7
 10
-0.8186954643
 20
6.6546746373
 30
0.0
 11
-0.5686954643
 21
6.6546746373
 31
0.0
  0
LINE
  5
3FA
  8
0
  6
HIDDEN
 62
     7
 10
1.3813045357
 20
5.8381682864
 30
0.0
 11
1.1313045357
 21
5.8381682864
 31
0.0
  0
LINE
  5
3FB
  8
0
  6
HIDDEN
 62
     7
 10
-1.2186954643
 20
5.8381682864
 30
0.0
 11
-1.4686954643
 21
5.8381682864
 31
0.0
  0
LINE
  5
3FC
  8
0
  6
HIDDEN
 62
     7
 10
0.7313045357
 20
5.8381682864
 30
0.0
 11
0.4813045357
 21
5.8381682864
 31
0.0
  0
LINE
  5
3FD
  8
0
  6
HIDDEN
 62
     7
 10
-0.5686954643
 20
5.8381682864
 30
0.0
 11
-0.8186954643
 21
5.8381682864
 31
0.0
  0
LINE
  5
3FE
  8
0
  6
HIDDEN
 62
     7
 10
0.0813045357
 20
5.8381682864
 30
0.0
 11
-0.1686954643
 21
5.8381682864
 31
0.0
  0
LINE
  5
3FF
  8
0
  6
HIDDEN
 62
     7
 10
3.8868893531
 20
5.2546746373
 30
0.0
 11
3.8868893531
 21
6.3546746373
 31
0.0
  0
LINE
  5
400
  8
0
  6
HIDDEN
 62
     7
 10
4.2234055513
 20
6.3546746373
 30
0.0
 11
4.2234055513
 21
5.2546746373
 31
0.0
  0
LINE
  5
401
  8
0
  6
HIDDEN
 62
     7
 10
5.0563045357
 20
6.3546746373
 30
0.0
 11
1.9563045357
 21
6.3546746373
 31
0.0
  0
LINE
  5
402
  8
0
  6
HIDDEN
 62
     7
 10
3.4618529653
 20
5.2546746373
 30
0.0
 11
5.0563045357
 21
5.2546746373
 31
0.0
  0
LINE
  5
403
  8
0
  6
HIDDEN
 62
     7
 10
-4.31079648
 20
5.2546746373
 30
0.0
 11
-4.31079648
 21
6.3546746373
 31
0.0
  0
LINE
  5
404
  8
0
  6
HIDDEN
 62
     7
 10
-3.9742802818
 20
6.3546746373
 30
0.0
 11
-3.9742802818
 21
5.2546746373
 31
0.0
  0
LINE
  5
405
  8
0
  6
HIDDEN
 62
     7
 10
-1.6336954643
 20
0.7046746373
 30
0.0
 11
1.5463045357
 21
0.7046746373
 31
0.0
  0
LINE
  5
406
  8
0
  6
HIDDEN
 62
     7
 10
1.4563045357
 20
0.9276425984
 30
0.0
 11
1.0563045357
 21
0.9276425984
 31
0.0
  0
LINE
  5
407
  8
0
  6
HIDDEN
 62
     7
 10
1.0563045357
 20
0.9276425984
 30
0.0
 11
1.0563045357
 21
3.3546746373
 31
0.0
  0
LINE
  5
408
  8
0
  6
HIDDEN
 62
     7
 10
-0.4936954643
 20
3.3546746373
 30
0.0
 11
-0.4936954643
 21
0.9276425984
 31
0.0
  0
LINE
  5
409
  8
0
  6
HIDDEN
 62
     7
 10
-1.1436954643
 20
3.3546746373
 30
0.0
 11
-1.1436954643
 21
0.9276425984
 31
0.0
  0
LINE
  5
40A
  8
0
  6
HIDDEN
 62
     7
 10
0.8063045357
 20
0.9276425984
 30
0.0
 11
0.4063045357
 21
0.9276425984
 31
0.0
  0
LINE
  5
40B
  8
0
  6
HIDDEN
 62
     7
 10
0.1563045357
 20
0.9276425984
 30
0.0
 11
-0.2436954643
 21
0.9276425984
 31
0.0
  0
LINE
  5
40C
  8
0
  6
HIDDEN
 62
     7
 10
0.8063045357
 20
3.3546746373
 30
0.0
 11
0.8063045357
 21
0.9276425984
 31
0.0
  0
LINE
  5
40D
  8
0
  6
HIDDEN
 62
     7
 10
-1.1436954643
 20
0.9276425984
 30
0.0
 11
-1.5436954643
 21
0.9276425984
 31
0.0
  0
LINE
  5
40E
  8
0
  6
HIDDEN
 62
     7
 10
0.1563045357
 20
3.3546746373
 30
0.0
 11
0.1563045357
 21
0.9276425984
 31
0.0
  0
LINE
  5
40F
  8
0
  6
HIDDEN
 62
     7
 10
-0.4936954643
 20
0.9276425984
 30
0.0
 11
-0.8936954643
 21
0.9276425984
 31
0.0
  0
LINE
  5
410
  8
0
  6
HIDDEN
 62
     7
 10
0.3063045357
 20
0.8046746373
 30
0.0
 11
0.2563045357
 21
0.8046746373
 31
0.0
  0
LINE
  5
411
  8
0
  6
HIDDEN
 62
     7
 10
-1.0436954643
 20
0.8046746373
 30
0.0
 11
-1.1436954643
 21
1.0046746373
 31
0.0
  0
LINE
  5
412
  8
0
  6
HIDDEN
 62
     7
 10
-1.5436954643
 20
0.9276425984
 30
0.0
 11
-1.5436954643
 21
3.3546746373
 31
0.0
  0
LINE
  5
413
  8
0
  6
HIDDEN
 62
     7
 10
0.4063045357
 20
0.9276425984
 30
0.0
 11
0.4063045357
 21
3.3546746373
 31
0.0
  0
LINE
  5
414
  8
0
  6
HIDDEN
 62
     7
 10
0.2563045357
 20
0.8046746373
 30
0.0
 11
0.1563045357
 21
1.0046746373
 31
0.0
  0
LINE
  5
415
  8
0
  6
HIDDEN
 62
     7
 10
0.9063045357
 20
0.8046746373
 30
0.0
 11
0.8063045357
 21
1.0046746373
 31
0.0
  0
LINE
  5
416
  8
0
  6
HIDDEN
 62
     7
 10
-1.6436954643
 20
0.8046746373
 30
0.0
 11
-1.7336954643
 21
0.8046746373
 31
0.0
  0
LINE
  5
417
  8
0
  6
HIDDEN
 62
     7
 10
-0.2436954643
 20
1.0046746373
 30
0.0
 11
-0.3436954643
 21
0.8046746373
 31
0.0
  0
LINE
  5
418
  8
0
  6
HIDDEN
 62
     7
 10
1.4563045357
 20
3.3546746373
 30
0.0
 11
1.4563045357
 21
0.9276425984
 31
0.0
  0
LINE
  5
419
  8
0
  6
HIDDEN
 62
     7
 10
-0.2436954643
 20
0.9276425984
 30
0.0
 11
-0.2436954643
 21
3.3546746373
 31
0.0
  0
LINE
  5
41A
  8
0
  6
HIDDEN
 62
     7
 10
0.4063045357
 20
1.0046746373
 30
0.0
 11
0.3063045357
 21
0.8046746373
 31
0.0
  0
LINE
  5
41B
  8
0
  6
HIDDEN
 62
     7
 10
1.6463045357
 20
0.8046746373
 30
0.0
 11
1.5563045357
 21
0.8046746373
 31
0.0
  0
LINE
  5
41C
  8
0
  6
HIDDEN
 62
     7
 10
-0.3936954643
 20
0.8046746373
 30
0.0
 11
-0.4936954643
 21
1.0046746373
 31
0.0
  0
LINE
  5
41D
  8
0
  6
HIDDEN
 62
     7
 10
-0.9936954643
 20
0.8046746373
 30
0.0
 11
-1.0436954643
 21
0.8046746373
 31
0.0
  0
LINE
  5
41E
  8
0
  6
HIDDEN
 62
     7
 10
-0.3436954643
 20
0.8046746373
 30
0.0
 11
-0.3936954643
 21
0.8046746373
 31
0.0
  0
LINE
  5
41F
  8
0
  6
HIDDEN
 62
     7
 10
0.9563045357
 20
0.8046746373
 30
0.0
 11
0.9063045357
 21
0.8046746373
 31
0.0
  0
LINE
  5
420
  8
0
  6
HIDDEN
 62
     7
 10
1.5563045357
 20
0.8046746373
 30
0.0
 11
1.4563045357
 21
1.0046746373
 31
0.0
  0
LINE
  5
421
  8
0
  6
HIDDEN
 62
     7
 10
-0.8936954643
 20
0.9276425984
 30
0.0
 11
-0.8936954643
 21
3.3546746373
 31
0.0
  0
LINE
  5
422
  8
0
  6
HIDDEN
 62
     7
 10
-0.8936954643
 20
1.0046746373
 30
0.0
 11
-0.9936954643
 21
0.8046746373
 31
0.0
  0
LINE
  5
423
  8
0
  6
HIDDEN
 62
     7
 10
1.0563045357
 20
1.0046746373
 30
0.0
 11
0.9563045357
 21
0.8046746373
 31
0.0
  0
LINE
  5
424
  8
0
  6
HIDDEN
 62
     7
 10
-1.5436954643
 20
1.0046746373
 30
0.0
 11
-1.6436954643
 21
0.8046746373
 31
0.0
  0
LINE
  5
425
  8
0
  6
HIDDEN
 62
     7
 10
-3.5036954643
 20
2.7046746373
 30
0.0
 11
-3.8036954643
 21
2.7046746373
 31
0.0
  0
LINE
  5
426
  8
0
  6
HIDDEN
 62
     7
 10
-3.8036954643
 20
2.8546746373
 30
0.0
 11
-2.3036954643
 21
2.8546746373
 31
0.0
  0
LINE
  5
427
  8
0
  6
HIDDEN
 62
     7
 10
2.2163045357
 20
2.8546746373
 30
0.0
 11
3.7163045357
 21
2.8546746373
 31
0.0
  0
LINE
  5
428
  8
0
  6
HIDDEN
 62
     7
 10
3.7163045357
 20
2.7046746373
 30
0.0
 11
3.4163045357
 21
2.7046746373
 31
0.0
  0
LINE
  5
429
  8
0
  6
HIDDEN
 62
     7
 10
-1.5436954643
 20
0.9898402228
 30
0.0
 11
-1.1436954643
 21
0.9898402228
 31
0.0
  0
LINE
  5
42A
  8
0
  6
HIDDEN
 62
     7
 10
0.4063045357
 20
0.9898402228
 30
0.0
 11
0.8063045357
 21
0.9898402228
 31
0.0
  0
LINE
  5
42B
  8
0
  6
HIDDEN
 62
     7
 10
-0.2436954643
 20
0.9898402228
 30
0.0
 11
0.1563045357
 21
0.9898402228
 31
0.0
  0
LINE
  5
42C
  8
0
  6
HIDDEN
 62
     7
 10
-0.8936954643
 20
0.9898402228
 30
0.0
 11
-0.4936954643
 21
0.9898402228
 31
0.0
  0
LINE
  5
42D
  8
0
  6
HIDDEN
 62
     7
 10
1.0563045357
 20
0.9898402228
 30
0.0
 11
1.4563045357
 21
0.9898402228
 31
0.0
  0
LINE
  5
42E
  8
0
  6
HIDDEN
 62
     7
 10
1.1313045357
 20
5.8295080323
 30
0.0
 11
1.3813045357
 21
5.8295080323
 31
0.0
  0
LINE
  5
42F
  8
0
  6
HIDDEN
 62
     7
 10
-0.1686954643
 20
5.8295080323
 30
0.0
 11
0.0813045357
 21
5.8295080323
 31
0.0
  0
LINE
  5
430
  8
0
  6
HIDDEN
 62
     7
 10
0.4813045357
 20
5.8295080323
 30
0.0
 11
0.7313045357
 21
5.8295080323
 31
0.0
  0
LINE
  5
431
  8
0
  6
HIDDEN
 62
     7
 10
-1.4686954643
 20
5.8295080323
 30
0.0
 11
-1.2186954643
 21
5.8295080323
 31
0.0
  0
LINE
  5
432
  8
0
  6
HIDDEN
 62
     7
 10
-0.8186954643
 20
5.8295080323
 30
0.0
 11
-0.5686954643
 21
5.8295080323
 31
0.0
  0
LINE
  5
433
  8
0
  6
HIDDEN
 62
     7
 10
-0.8186954643
 20
5.7429054919
 30
0.0
 11
-0.5686954643
 21
5.7429054919
 31
0.0
  0
LINE
  5
434
  8
0
  6
HIDDEN
 62
     7
 10
-1.4686954643
 20
5.7429054919
 30
0.0
 11
-1.2186954643
 21
5.7429054919
 31
0.0
  0
LINE
  5
435
  8
0
  6
HIDDEN
 62
     7
 10
0.4813045357
 20
5.7429054919
 30
0.0
 11
0.7313045357
 21
5.7429054919
 31
0.0
  0
LINE
  5
436
  8
0
  6
HIDDEN
 62
     7
 10
-0.1686954643
 20
5.7429054919
 30
0.0
 11
0.0813045357
 21
5.7429054919
 31
0.0
  0
LINE
  5
437
  8
0
  6
HIDDEN
 62
     7
 10
1.1313045357
 20
5.7429054919
 30
0.0
 11
1.3813045357
 21
5.7429054919
 31
0.0
  0
LINE
  5
438
  8
0
  6
HIDDEN
 62
     7
 10
-1.7936954643
 20
5.4246746373
 30
0.0
 11
1.7063045357
 21
5.4246746373
 31
0.0
  0
LINE
  5
439
  8
0
  6
HIDDEN
 62
     7
 10
1.7063045357
 20
5.8046746373
 30
0.0
 11
1.7063045357
 21
5.4246746373
 31
0.0
  0
LINE
  5
43A
  8
0
  6
HIDDEN
 62
     7
 10
3.3663045357
 20
5.8046746373
 30
0.0
 11
1.7063045357
 21
5.8046746373
 31
0.0
  0
LINE
  5
43B
  8
0
  6
HIDDEN
 62
     7
 10
-1.7936954643
 20
5.8046746373
 30
0.0
 11
-3.4536954643
 21
5.8046746373
 31
0.0
  0
LINE
  5
43C
  8
0
  6
HIDDEN
 62
     7
 10
-1.7936954643
 20
5.4246746373
 30
0.0
 11
-1.7936954643
 21
5.8046746373
 31
0.0
  0
LINE
  5
43D
  8
0
  6
HIDDEN
 62
     7
 10
-2.8009246884
 20
6.3546746373
 30
0.0
 11
-2.8009246884
 21
4.6546746373
 31
0.0
  0
LINE
  5
43E
  8
0
  6
HIDDEN
 62
     7
 10
-3.4383019436
 20
5.1046746373
 30
0.0
 11
-3.4383019436
 21
4.8046746373
 31
0.0
  0
LINE
  5
43F
  8
0
  6
HIDDEN
 62
     7
 10
3.3509110149
 20
4.8046746373
 30
0.0
 11
3.3509110149
 21
5.1046746373
 31
0.0
  0
LINE
  5
440
  8
0
  6
HIDDEN
 62
     7
 10
2.7135337597
 20
4.6546746373
 30
0.0
 11
2.7135337597
 21
6.3546746373
 31
0.0
  0
LINE
  5
441
  8
0
  6
HIDDEN
 62
     7
 10
-1.6336954643
 20
1.0046746373
 30
0.0
 11
-1.6336954643
 21
3.3546746373
 31
0.0
  0
LINE
  5
442
  8
0
  6
HIDDEN
 62
     7
 10
1.5463045357
 20
3.3546746373
 30
0.0
 11
1.5463045357
 21
1.0046746373
 31
0.0
  0
LINE
  5
443
  8
0
  6
HIDDEN
 62
     7
 10
1.4563045357
 20
1.1846746373
 30
0.0
 11
1.0563045357
 21
1.1846746373
 31
0.0
  0
LINE
  5
444
  8
0
  6
HIDDEN
 62
     7
 10
0.8063045357
 20
1.1846746373
 30
0.0
 11
0.4063045357
 21
1.1846746373
 31
0.0
  0
LINE
  5
445
  8
0
  6
HIDDEN
 62
     7
 10
-1.1436954643
 20
1.1846746373
 30
0.0
 11
-1.5436954643
 21
1.1846746373
 31
0.0
  0
LINE
  5
446
  8
0
  6
HIDDEN
 62
     7
 10
-0.4936954643
 20
1.1846746373
 30
0.0
 11
-0.8936954643
 21
1.1846746373
 31
0.0
  0
LINE
  5
447
  8
0
  6
HIDDEN
 62
     7
 10
0.1563045357
 20
1.1846746373
 30
0.0
 11
-0.2436954643
 21
1.1846746373
 31
0.0
  0
LINE
  5
448
  8
0
  6
HIDDEN
 62
     7
 10
1.1313045357
 20
5.9680720969
 30
0.0
 11
1.3813045357
 21
5.9680720969
 31
0.0
  0
LINE
  5
449
  8
0
  6
HIDDEN
 62
     7
 10
-0.8186954643
 20
5.9680720969
 30
0.0
 11
-0.5686954643
 21
5.9680720969
 31
0.0
  0
LINE
  5
44A
  8
0
  6
HIDDEN
 62
     7
 10
-0.1686954643
 20
5.9680720969
 30
0.0
 11
0.0813045357
 21
5.9680720969
 31
0.0
  0
LINE
  5
44B
  8
0
  6
HIDDEN
 62
     7
 10
-1.4686954643
 20
5.9680720969
 30
0.0
 11
-1.2186954643
 21
5.9680720969
 31
0.0
  0
LINE
  5
44C
  8
0
  6
HIDDEN
 62
     7
 10
0.4813045357
 20
5.9680720969
 30
0.0
 11
0.7313045357
 21
5.9680720969
 31
0.0
  0
LINE
  5
44D
  8
0
  6
HIDDEN
 62
     7
 10
0.7313045357
 20
5.9594118429
 30
0.0
 11
0.4813045357
 21
5.9594118429
 31
0.0
  0
LINE
  5
44E
  8
0
  6
HIDDEN
 62
     7
 10
0.0813045357
 20
5.9594118429
 30
0.0
 11
-0.1686954643
 21
5.9594118429
 31
0.0
  0
LINE
  5
44F
  8
0
  6
HIDDEN
 62
     7
 10
-0.5686954643
 20
5.9594118429
 30
0.0
 11
-0.8186954643
 21
5.9594118429
 31
0.0
  0
LINE
  5
450
  8
0
  6
HIDDEN
 62
     7
 10
1.3813045357
 20
5.9594118429
 30
0.0
 11
1.1313045357
 21
5.9594118429
 31
0.0
  0
LINE
  5
451
  8
0
  6
HIDDEN
 62
     7
 10
-1.2186954643
 20
5.9594118429
 30
0.0
 11
-1.4686954643
 21
5.9594118429
 31
0.0
  0
LINE
  5
452
  8
0
  6
HIDDEN
 62
     7
 10
-0.2436954643
 20
1.0046746373
 30
0.0
 11
-0.4936954643
 21
1.0046746373
 31
0.0
  0
LINE
  5
453
  8
0
  6
HIDDEN
 62
     7
 10
-0.8936954643
 20
1.0046746373
 30
0.0
 11
-1.1436954643
 21
1.0046746373
 31
0.0
  0
LINE
  5
454
  8
0
  6
HIDDEN
 62
     7
 10
1.0563045357
 20
1.0046746373
 30
0.0
 11
0.8063045357
 21
1.0046746373
 31
0.0
  0
LINE
  5
455
  8
0
  6
HIDDEN
 62
     7
 10
0.4063045357
 20
1.0046746373
 30
0.0
 11
0.1563045357
 21
1.0046746373
 31
0.0
  0
LINE
  5
456
  8
0
  6
HIDDEN
 62
     7
 10
1.5463045357
 20
1.0046746373
 30
0.0
 11
1.4563045357
 21
1.0046746373
 31
0.0
  0
LINE
  5
457
  8
0
  6
HIDDEN
 62
     7
 10
-1.5436954643
 20
1.0046746373
 30
0.0
 11
-1.6336954643
 21
1.0046746373
 31
0.0
  0
LINE
  5
458
  8
0
  6
HIDDEN
 62
     7
 10
4.088799072
 20
6.3546746373
 30
0.0
 11
4.088799072
 21
5.2546746373
 31
0.0
  0
LINE
  5
459
  8
0
  6
HIDDEN
 62
     7
 10
-4.1761900007
 20
5.2546746373
 30
0.0
 11
-4.1761900007
 21
6.3546746373
 31
0.0
  0
LINE
  5
45A
  8
0
  6
HIDDEN
 62
     7
 10
3.3063927214
 20
5.8046746373
 30
0.0
 11
3.3063927214
 21
4.6546746373
 31
0.0
  0
LINE
  5
45B
  8
0
  6
HIDDEN
 62
     7
 10
-3.3937836501
 20
4.6546746373
 30
0.0
 11
-3.3937836501
 21
5.8046746373
 31
0.0
  0
LINE
  5
45C
  8
0
  6
HIDDEN
 62
     7
 10
-3.4870224172
 20
-0.0677148551
 30
0.0
 11
-3.4383019436
 21
0.0046746373
 31
0.0
  0
LINE
  5
45D
  8
0
  6
HIDDEN
 62
     7
 10
-3.4383019436
 20
0.0046746373
 30
0.0
 11
-3.4383019436
 21
0.7546746373
 31
0.0
  0
LINE
  5
45E
  8
0
  6
HIDDEN
 62
     7
 10
3.3509110149
 20
0.0046746373
 30
0.0
 11
3.3996314885
 21
-0.0677148551
 31
0.0
  0
LINE
  5
45F
  8
0
  6
HIDDEN
 62
     7
 10
3.3509110149
 20
0.0046746373
 30
0.0
 11
3.3509110149
 21
0.7546746373
 31
0.0
  0
LINE
  5
460
  8
0
  6
HIDDEN
 62
     7
 10
-3.5729084229
 20
-0.1453253627
 30
0.0
 11
-3.5009613745
 21
-0.0836067174
 31
0.0
  0
LINE
  5
461
  8
0
  6
HIDDEN
 62
     7
 10
3.4135704458
 20
-0.0836067174
 30
0.0
 11
3.4855174942
 21
-0.1453253627
 31
0.0
  0
LINE
  5
462
  8
0
  6
HIDDEN
 62
     7
 10
3.5528207338
 20
5.1046746373
 30
0.0
 11
3.5528207338
 21
2.8546746373
 31
0.0
  0
LINE
  5
463
  8
0
  6
HIDDEN
 62
     7
 10
-3.6402116625
 20
2.8546746373
 30
0.0
 11
-3.6402116625
 21
5.1046746373
 31
0.0
  0
LINE
  5
464
  8
0
  6
HIDDEN
 62
     7
 10
3.3509110149
 20
3.3546746373
 30
0.0
 11
3.3509110149
 21
2.8546746373
 31
0.0
  0
LINE
  5
465
  8
0
  6
HIDDEN
 62
     7
 10
-3.4383019436
 20
3.3546746373
 30
0.0
 11
-3.4383019436
 21
2.8546746373
 31
0.0
  0
LINE
  5
466
  8
0
  6
HIDDEN
 62
     7
 10
-3.6402116625
 20
-0.1453253627
 30
0.0
 11
-3.6402116625
 21
0.7546746373
 31
0.0
  0
LINE
  5
467
  8
0
  6
HIDDEN
 62
     7
 10
3.5528207338
 20
0.7546746373
 30
0.0
 11
3.5528207338
 21
-0.1453253627
 31
0.0
  0
LINE
  5
468
  8
0
  6
HIDDEN
 62
     7
 10
3.5528207338
 20
4.8046746373
 30
0.0
 11
3.3509110149
 21
4.8046746373
 31
0.0
  0
LINE
  5
469
  8
0
  6
HIDDEN
 62
     7
 10
3.3509110149
 20
5.1046746373
 30
0.0
 11
3.5528207338
 21
5.1046746373
 31
0.0
  0
LINE
  5
46A
  8
0
  6
HIDDEN
 62
     7
 10
-3.4383019436
 20
4.8046746373
 30
0.0
 11
-3.6402116625
 21
4.8046746373
 31
0.0
  0
LINE
  5
46B
  8
0
  6
HIDDEN
 62
     7
 10
-3.6402116625
 20
5.1046746373
 30
0.0
 11
-3.4383019436
 21
5.1046746373
 31
0.0
  0
LINE
  5
46C
  8
0
  6
HIDDEN
 62
     7
 10
2.7622542333
 20
-0.0677148551
 30
0.0
 11
2.7135337597
 21
0.0046746373
 31
0.0
  0
LINE
  5
46D
  8
0
  6
HIDDEN
 62
     7
 10
2.7135337597
 20
0.0046746373
 30
0.0
 11
2.7135337597
 21
0.7546746373
 31
0.0
  0
LINE
  5
46E
  8
0
  6
HIDDEN
 62
     7
 10
-2.8009246884
 20
0.0046746373
 30
0.0
 11
-2.8009246884
 21
0.7546746373
 31
0.0
  0
LINE
  5
46F
  8
0
  6
HIDDEN
 62
     7
 10
-2.8009246884
 20
0.0046746373
 30
0.0
 11
-2.849645162
 21
-0.0677148551
 31
0.0
  0
LINE
  5
470
  8
0
  6
HIDDEN
 62
     7
 10
-2.8009246884
 20
3.3546746373
 30
0.0
 11
-2.8009246884
 21
2.8546746373
 31
0.0
  0
LINE
  5
471
  8
0
  6
HIDDEN
 62
     7
 10
2.7135337597
 20
3.3546746373
 30
0.0
 11
2.7135337597
 21
2.8546746373
 31
0.0
  0
LINE
  5
472
  8
0
  6
HIDDEN
 62
     7
 10
-2.8635841193
 20
-0.0836067174
 30
0.0
 11
-2.9355311677
 21
-0.1453253627
 31
0.0
  0
LINE
  5
473
  8
0
  6
HIDDEN
 62
     7
 10
2.848140239
 20
-0.1453253627
 30
0.0
 11
2.7761931906
 21
-0.0836067174
 31
0.0
  0
LINE
  5
474
  8
0
  6
HIDDEN
 62
     7
 10
2.6746471783
 20
4.6546746373
 30
0.0
 11
2.6746471783
 21
5.8046746373
 31
0.0
  0
LINE
  5
475
  8
0
  6
HIDDEN
 62
     7
 10
-2.7620381069
 20
5.8046746373
 30
0.0
 11
-2.7620381069
 21
4.6546746373
 31
0.0
  0
LINE
  5
476
  8
0
  6
HIDDEN
 62
     7
 10
2.5789272804
 20
0.7546746373
 30
0.0
 11
2.5789272804
 21
-0.1453253627
 31
0.0
  0
LINE
  5
477
  8
0
  6
HIDDEN
 62
     7
 10
-2.6663182091
 20
0.7546746373
 30
0.0
 11
-2.6663182091
 21
-0.1453253627
 31
0.0
  0
LINE
  5
478
  8
0
  6
HIDDEN
 62
     7
 10
-2.6663182091
 20
6.3546746373
 30
0.0
 11
-2.6663182091
 21
4.6546746373
 31
0.0
  0
LINE
  5
479
  8
0
  6
HIDDEN
 62
     7
 10
-2.6663182091
 20
2.8546746373
 30
0.0
 11
-2.6663182091
 21
3.3546746373
 31
0.0
  0
LINE
  5
47A
  8
0
  6
HIDDEN
 62
     7
 10
2.5789272804
 20
6.3546746373
 30
0.0
 11
2.5789272804
 21
2.8546746373
 31
0.0
  0
LINE
  5
47B
  8
0
  6
HIDDEN
 62
     7
 10
-2.6219499212
 20
4.6546746373
 30
0.0
 11
-2.6219499212
 21
5.8046746373
 31
0.0
  0
LINE
  5
47C
  8
0
  6
HIDDEN
 62
     7
 10
2.5345589925
 20
5.8046746373
 30
0.0
 11
2.5345589925
 21
4.6546746373
 31
0.0
  0
LINE
  5
47D
  8
0
  6
HIDDEN
 62
     7
 10
0.5563045357
 20
5.0546746373
 30
0.0
 11
-0.6436954643
 21
5.0546746373
 31
0.0
  0
LINE
  5
47E
  8
0
  6
HIDDEN
 62
     7
 10
2.4063045357
 20
3.9046747914
 30
0.0
 11
2.4063045357
 21
4.8046746373
 31
0.0
  0
LINE
  5
47F
  8
0
  6
HIDDEN
 62
     7
 10
-2.4936954643
 20
4.8046746373
 30
0.0
 11
-2.4936954643
 21
3.904674792
 31
0.0
  0
LINE
  5
480
  8
0
  6
HIDDEN
 62
     7
 10
1.0215485691
 20
6.1288906278
 30
0.0
 11
0.7910605022
 21
5.9304586468
 31
0.0
  0
LINE
  5
481
  8
0
  6
HIDDEN
 62
     7
 10
1.0563045357
 20
6.2546746373
 30
0.0
 11
1.0563045357
 21
6.2046746373
 31
0.0
  0
LINE
  5
482
  8
0
  6
HIDDEN
 62
     7
 10
1.7563045357
 20
6.2546746373
 30
0.0
 11
1.0563045357
 21
6.2546746373
 31
0.0
  0
LINE
  5
483
  8
0
  6
HIDDEN
 62
     7
 10
1.7563045357
 20
6.2046746373
 30
0.0
 11
1.7563045357
 21
6.2546746373
 31
0.0
  0
LINE
  5
484
  8
0
  6
HIDDEN
 62
     7
 10
1.9563045357
 20
6.1046746373
 30
0.0
 11
1.8563045357
 21
6.1046746373
 31
0.0
  0
LINE
  5
485
  8
0
  6
HIDDEN
 62
     7
 10
2.0563045357
 20
6.2546746373
 30
0.0
 11
2.0563045357
 21
6.2046746373
 31
0.0
  0
LINE
  5
486
  8
0
  6
HIDDEN
 62
     7
 10
1.1563045357
 20
4.9046746373
 30
0.0
 11
2.3063045357
 21
4.9046746373
 31
0.0
  0
LINE
  5
487
  8
0
  6
HIDDEN
 62
     7
 10
1.0563045357
 20
3.8046746373
 30
0.0
 11
1.0563045357
 21
4.8046746373
 31
0.0
  0
LINE
  5
488
  8
0
  6
HIDDEN
 62
     7
 10
-1.1436954643
 20
4.8046746373
 30
0.0
 11
-1.1436954643
 21
3.8046746373
 31
0.0
  0
LINE
  5
489
  8
0
  6
HIDDEN
 62
     7
 10
-2.3936954643
 20
4.9046746373
 30
0.0
 11
-1.2436954643
 21
4.9046746373
 31
0.0
  0
LINE
  5
48A
  8
0
  6
HIDDEN
 62
     7
 10
-2.1436954643
 20
6.2046746373
 30
0.0
 11
-2.1436954643
 21
6.2546746373
 31
0.0
  0
LINE
  5
48B
  8
0
  6
HIDDEN
 62
     7
 10
-1.9436954643
 20
6.1046746373
 30
0.0
 11
-2.0436954643
 21
6.1046746373
 31
0.0
  0
LINE
  5
48C
  8
0
  6
HIDDEN
 62
     7
 10
-1.8436954643
 20
6.2546746373
 30
0.0
 11
-1.8436954643
 21
6.2046746373
 31
0.0
  0
LINE
  5
48D
  8
0
  6
HIDDEN
 62
     7
 10
-1.1436954643
 20
6.2546746373
 30
0.0
 11
-1.8436954643
 21
6.2546746373
 31
0.0
  0
LINE
  5
48E
  8
0
  6
HIDDEN
 62
     7
 10
-1.1436954643
 20
6.2046746373
 30
0.0
 11
-1.1436954643
 21
6.2546746373
 31
0.0
  0
LINE
  5
48F
  8
0
  6
HIDDEN
 62
     7
 10
-0.8784514309
 20
5.9304586469
 30
0.0
 11
-1.1089394978
 21
6.1288906278
 31
0.0
  0
LINE
  5
490
  8
0
  6
HIDDEN
 62
     7
 10
-0.8436954643
 20
5.2546746373
 30
0.0
 11
-0.8436954643
 21
5.8546746373
 31
0.0
  0
LINE
  5
491
  8
0
  6
HIDDEN
 62
     7
 10
0.7563045357
 20
5.8546746373
 30
0.0
 11
0.7563045357
 21
5.2546746373
 31
0.0
  0
LINE
  5
492
  8
0
  6
HIDDEN
 62
     7
 10
1.8604334338
 20
4.6046746373
 30
0.0
 11
1.8604334338
 21
4.0046746373
 31
0.0
  0
LINE
  5
493
  8
0
  6
HIDDEN
 62
     7
 10
2.3063045357
 20
4.6046746373
 30
0.0
 11
1.8604334338
 21
4.6046746373
 31
0.0
  0
LINE
  5
494
  8
0
  6
HIDDEN
 62
     7
 10
-1.9478243625
 20
4.0046746373
 30
0.0
 11
-1.9478243625
 21
4.6046746373
 31
0.0
  0
LINE
  5
495
  8
0
  6
HIDDEN
 62
     7
 10
-1.9478243625
 20
4.6046746373
 30
0.0
 11
-2.3936954643
 21
4.6046746373
 31
0.0
  0
LINE
  5
496
  8
0
  6
HIDDEN
 62
     7
 10
-2.3936954643
 20
4.0046746373
 30
0.0
 11
-1.9478243625
 21
4.0046746373
 31
0.0
  0
LINE
  5
497
  8
0
  6
HIDDEN
 62
     7
 10
-2.4936954643
 20
3.8046746373
 30
0.0
 11
-2.4936954643
 21
3.9046746373
 31
0.0
  0
LINE
  5
498
  8
0
  6
HIDDEN
 62
     7
 10
2.4063045357
 20
3.9046746373
 30
0.0
 11
2.4063045357
 21
3.8046746373
 31
0.0
  0
LINE
  5
499
  8
0
  6
HIDDEN
 62
     7
 10
2.3063045357
 20
3.7046746373
 30
0.0
 11
1.1563045357
 21
3.7046746373
 31
0.0
  0
LINE
  5
49A
  8
0
  6
HIDDEN
 62
     7
 10
1.8604334338
 20
4.0046746373
 30
0.0
 11
2.3063045357
 21
4.0046746373
 31
0.0
  0
LINE
  5
49B
  8
0
  6
HIDDEN
 62
     7
 10
-1.2436954643
 20
3.7046746373
 30
0.0
 11
-2.3936954643
 21
3.7046746373
 31
0.0
  0
LINE
  5
49C
  8
0
  6
HIDDEN
 62
     7
 10
2.9154434786
 20
2.8546746373
 30
0.0
 11
2.9154434786
 21
6.3546746373
 31
0.0
  0
LINE
  5
49D
  8
0
  6
HIDDEN
 62
     7
 10
2.9154434786
 20
-0.1453253627
 30
0.0
 11
2.9154434786
 21
0.7546746373
 31
0.0
  0
LINE
  5
49E
  8
0
  6
HIDDEN
 62
     7
 10
2.0902839139
 20
4.6046746373
 30
0.0
 11
2.0902839139
 21
4.0046746373
 31
0.0
  0
LINE
  5
49F
  8
0
  6
HIDDEN
 62
     7
 10
2.3962152407
 20
4.6626610093
 30
0.0
 11
2.3843544205
 21
4.645000252
 31
0.0
  0
LINE
  5
4A0
  8
0
  6
HIDDEN
 62
     7
 10
-2.1776748426
 20
4.0046746373
 30
0.0
 11
-2.1776748426
 21
4.6046746373
 31
0.0
  0
LINE
  5
4A1
  8
0
  6
HIDDEN
 62
     7
 10
-2.4647313832
 20
4.6345564593
 30
0.0
 11
-2.4836061699
 21
4.6626610105
 31
0.0
  0
LINE
  5
4A2
  8
0
  6
HIDDEN
 62
     7
 10
-2.9169905712
 20
0.7546746373
 30
0.0
 11
-2.9169905712
 21
-0.1453253627
 31
0.0
  0
LINE
  5
4A3
  8
0
  6
HIDDEN
 62
     7
 10
-2.9169905712
 20
6.3546746373
 30
0.0
 11
-2.9169905712
 21
2.8546746373
 31
0.0
  0
LINE
  5
4A4
  8
0
  6
HIDDEN
 62
     7
 10
-2.7823840919
 20
2.8546746373
 30
0.0
 11
-2.7823840919
 21
6.3546746373
 31
0.0
  0
LINE
  5
4A5
  8
0
  6
HIDDEN
 62
     7
 10
-2.7823840919
 20
-0.1453253627
 30
0.0
 11
-2.7823840919
 21
0.7546746373
 31
0.0
  0
ARC
  5
4B2
  8
0
  6
CONTINUOUS
 62
     7
 10
-2.802092924
 20
0.903773114
 30
0.0
 40
0.0999999999996534
 50
149.9999999997
 51
277.6993299467
  0
ARC
  5
4B3
  8
0
  6
CONTINUOUS
 62
     7
 10
-2.0352980047
 20
0.903773114
 30
0.0
 40
0.0999999999999977
 50
262.3006700536
 51
29.9999999999
  0
ARC
  5
4B4
  8
0
  6
CONTINUOUS
 62
     7
 10
1.947907076
 20
0.903773114
 30
0.0
 40
0.0999999999996532
 50
149.9999999997
 51
277.6993299467
  0
ARC
  5
4B5
  8
0
  6
CONTINUOUS
 62
     7
 10
2.7147019953
 20
0.903773114
 30
0.0
 40
0.0999999999999981
 50
262.3006700536
 51
29.9999999999
  0
ARC
  5
4B6
  8
0
  6
HIDDEN
 62
     7
 10
1.9513045357
 20
3.9546746373
 30
0.0
 40
0.0999999999999919
 50
270.0
 51
0.0
  0
ARC
  5
4B7
  8
0
  6
HIDDEN
 62
     7
 10
-2.0386954643
 20
3.9546746373
 30
0.0
 40
0.1000000000000041
 50
180.0
 51
270.0
  0
ARC
  5
4B8
  8
0
  6
HIDDEN
 62
     7
 10
1.9513045344
 20
4.054674636
 30
0.0
 40
0.1000000012971905
 50
0.0001780096
 51
89.999999257
  0
ARC
  5
4B9
  8
0
  6
HIDDEN
 62
     7
 10
-2.0386954631
 20
4.054674636
 30
0.0
 40
0.1000000012573034
 50
90.0000007201
 51
179.999822684
  0
ARC
  5
4BA
  8
0
  6
HIDDEN
 62
     7
 10
3.5594047062
 20
0.002995823
 30
0.0
 40
0.1000000000001191
 50
225.0
 51
240.0
  0
ARC
  5
4BB
  8
0
  6
HIDDEN
 62
     7
 10
-3.6467956349
 20
0.002995823
 30
0.0
 40
0.1000000000001899
 50
300.0
 51
315.0
  0
ARC
  5
4BC
  8
0
  6
HIDDEN
 62
     7
 10
-3.6836954643
 20
2.4046746373
 30
0.0
 40
0.3500000000087292
 50
249.9489574336
 51
269.9999999996
  0
ARC
  5
4BD
  8
0
  6
HIDDEN
 62
     7
 10
3.5963045357
 20
2.4046746373
 30
0.0
 40
0.3500000000181496
 50
270.0000000007
 51
360.0
  0
ARC
  5
4BE
  8
0
  6
HIDDEN
 62
     7
 10
-3.6836949511
 20
2.4046755445
 30
0.0
 40
0.350001028160002
 50
231.0552244112
 51
249.9489294282
  0
ARC
  5
4BF
  8
0
  6
HIDDEN
 62
     7
 10
4.0963045357
 20
2.4046746373
 30
0.0
 40
0.1499999999999941
 50
90.0
 51
180.0
  0
ARC
  5
4C0
  8
0
  6
HIDDEN
 62
     7
 10
-4.1836954643
 20
2.4046746373
 30
0.0
 40
0.1500000000000083
 50
0.0
 51
90.0
  0
ARC
  5
4C1
  8
0
  6
HIDDEN
 62
     7
 10
-3.6836954643
 20
2.4046746373
 30
0.0
 40
0.3500000000003193
 50
180.0
 51
231.0551964059
  0
ARC
  5
4C2
  8
0
  6
HIDDEN
 62
     7
 10
2.3813045357
 20
6.1546746373
 30
0.0
 40
0.1000000000000032
 50
180.0
 51
270.0
  0
ARC
  5
4C3
  8
0
  6
HIDDEN
 62
     7
 10
2.5813045357
 20
6.1546746373
 30
0.0
 40
0.0999999999999934
 50
270.0
 51
0.0
  0
ARC
  5
4C4
  8
0
  6
HIDDEN
 62
     7
 10
-2.6686954643
 20
6.1546746373
 30
0.0
 40
0.1000000000000041
 50
180.0
 51
270.0
  0
ARC
  5
4C5
  8
0
  6
HIDDEN
 62
     7
 10
-2.4686954643
 20
6.1546746373
 30
0.0
 40
0.0999999999999934
 50
270.0
 51
360.0
  0
ARC
  5
4C6
  8
0
  6
HIDDEN
 62
     7
 10
-3.5722105978
 20
5.12166111
 30
0.0
 40
0.1349817317854604
 50
352.7705736986
 51
80.2036481302
  0
ARC
  5
4C7
  8
0
  6
HIDDEN
 62
     7
 10
-3.5722105978
 20
4.7876881646
 30
0.0
 40
0.1349817317806719
 50
279.7963518676
 51
7.2294263038
  0
ARC
  5
4C8
  8
0
  6
HIDDEN
 62
     7
 10
3.4848196691
 20
5.12166111
 30
0.0
 40
0.1349817317847084
 50
99.7963518688
 51
187.2294263021
  0
ARC
  5
4C9
  8
0
  6
HIDDEN
 62
     7
 10
3.4848196691
 20
4.7876881646
 30
0.0
 40
0.1349817317850888
 50
172.770573698
 51
260.203648131
  0
ARC
  5
4CA
  8
0
  6
HIDDEN
 62
     7
 10
-1.6380343073
 20
0.9089928191
 30
0.0
 40
0.0957801435003222
 50
87.4036111859
 51
177.1437668262
  0
ARC
  5
4CB
  8
0
  6
HIDDEN
 62
     7
 10
1.5506433786
 20
0.9089928191
 30
0.0
 40
0.0957801435003242
 50
2.8562331738
 51
92.5963888141
  0
ARC
  5
4CC
  8
0
  6
HIDDEN
 62
     7
 10
-3.5527469019
 20
-0.0241260127
 30
0.0
 40
0.078865043424585
 50
311.043721258
 51
326.4474419985
  0
ARC
  5
4CD
  8
0
  6
HIDDEN
 62
     7
 10
3.4653559732
 20
-0.0241260127
 30
0.0
 40
0.0788650434244503
 50
213.5525580014
 51
228.956278742
  0
ARC
  5
4CE
  8
0
  6
HIDDEN
 62
     7
 10
3.6903515541
 20
4.7868187083
 30
0.0
 40
0.138685059479472
 50
172.6027146166
 51
252.3328551057
  0
ARC
  5
4CF
  8
0
  6
HIDDEN
 62
     7
 10
3.686729388
 20
5.12166111
 30
0.0
 40
0.1349817317851548
 50
99.7963518688
 51
187.2294263019
  0
ARC
  5
4D0
  8
0
  6
HIDDEN
 62
     7
 10
-3.7741203167
 20
5.12166111
 30
0.0
 40
0.1349817317854738
 50
352.7705736986
 51
80.2036481302
  0
ARC
  5
4D1
  8
0
  6
HIDDEN
 62
     7
 10
-2.9153696467
 20
-0.0241260127
 30
0.0
 40
0.0788650434241703
 50
311.0437212578
 51
326.4474419984
  0
ARC
  5
4D2
  8
0
  6
HIDDEN
 62
     7
 10
2.827978718
 20
-0.0241260127
 30
0.0
 40
0.0788650434246013
 50
213.5525580016
 51
228.956278742
  0
ARC
  5
4D3
  8
0
  6
HIDDEN
 62
     7
 10
-0.6186954643
 20
5.2546746373
 30
0.0
 40
0.1999999999999948
 50
180.0
 51
270.0
  0
ARC
  5
4D4
  8
0
  6
HIDDEN
 62
     7
 10
0.5313045357
 20
5.2546746373
 30
0.0
 40
0.2000000000000065
 50
270.0
 51
0.0
  0
ARC
  5
4D5
  8
0
  6
HIDDEN
 62
     7
 10
2.3063045357
 20
4.7046746373
 30
0.0
 40
0.0999999999999776
 50
270.0
 51
330.0
  0
ARC
  5
4D6
  8
0
  6
HIDDEN
 62
     7
 10
-2.3936954643
 20
4.7046746373
 30
0.0
 40
0.1000000000000213
 50
210.0
 51
270.0
  0
ARC
  5
4D7
  8
0
  6
HIDDEN
 62
     7
 10
0.8563045357
 20
5.8546746373
 30
0.0
 40
0.1000000000009467
 50
130.7258463018
 51
179.9999999996
  0
ARC
  5
4D8
  8
0
  6
HIDDEN
 62
     7
 10
0.9563045357
 20
6.2046746373
 30
0.0
 40
0.1000000000000879
 50
310.7258463016
 51
360.0
  0
ARC
  5
4D9
  8
0
  6
HIDDEN
 62
     7
 10
1.8563045357
 20
6.2046746373
 30
0.0
 40
0.1000000000000059
 50
180.0
 51
270.0
  0
ARC
  5
4DA
  8
0
  6
HIDDEN
 62
     7
 10
1.9563045357
 20
6.2046746373
 30
0.0
 40
0.099999999999997
 50
270.0
 51
0.0
  0
ARC
  5
4DB
  8
0
  6
HIDDEN
 62
     7
 10
2.1563045357
 20
6.2546746373
 30
0.0
 40
0.0999999999999961
 50
90.0
 51
180.0
  0
ARC
  5
4DC
  8
0
  6
HIDDEN
 62
     7
 10
2.3063045357
 20
4.8046746373
 30
0.0
 40
0.0999999999999872
 50
360.0
 51
90.0
  0
ARC
  5
4DD
  8
0
  6
HIDDEN
 62
     7
 10
1.1563045357
 20
4.8046746373
 30
0.0
 40
0.1000000000000014
 50
90.0
 51
180.0
  0
ARC
  5
4DE
  8
0
  6
HIDDEN
 62
     7
 10
-1.2436954643
 20
4.8046746373
 30
0.0
 40
0.0999999999999908
 50
360.0
 51
90.0
  0
ARC
  5
4DF
  8
0
  6
HIDDEN
 62
     7
 10
-2.3936954643
 20
4.8046746373
 30
0.0
 40
0.1000000000000081
 50
90.0
 51
180.0
  0
ARC
  5
4E0
  8
0
  6
HIDDEN
 62
     7
 10
-2.2436954643
 20
6.2546746373
 30
0.0
 40
0.1000000000000068
 50
360.0
 51
90.0
  0
ARC
  5
4E1
  8
0
  6
HIDDEN
 62
     7
 10
-2.0436954643
 20
6.2046746373
 30
0.0
 40
0.1000000000000059
 50
180.0
 51
270.0
  0
ARC
  5
4E2
  8
0
  6
HIDDEN
 62
     7
 10
-1.9436954643
 20
6.2046746373
 30
0.0
 40
0.099999999999997
 50
270.0
 51
0.0
  0
ARC
  5
4E3
  8
0
  6
HIDDEN
 62
     7
 10
-1.0436954643
 20
6.2046746373
 30
0.0
 40
0.099999999999826
 50
180.0
 51
229.2741536984
  0
ARC
  5
4E4
  8
0
  6
HIDDEN
 62
     7
 10
-0.9436954643
 20
5.8546746373
 30
0.0
 40
0.0999999999994542
 50
359.9999999999
 51
49.2741536986
  0
ARC
  5
4E5
  8
0
  6
HIDDEN
 62
     7
 10
-0.6436954643
 20
5.2546746373
 30
0.0
 40
0.1999999999999978
 50
180.0
 51
270.0
  0
ARC
  5
4E6
  8
0
  6
HIDDEN
 62
     7
 10
0.5563045357
 20
5.2546746373
 30
0.0
 40
0.1999999999999913
 50
270.0
 51
0.0
  0
ARC
  5
4E7
  8
0
  6
HIDDEN
 62
     7
 10
2.2163045357
 20
2.7546746373
 30
0.0
 40
0.1000000000000028
 50
90.0
 51
180.0
  0
ARC
  5
4E8
  8
0
  6
HIDDEN
 62
     7
 10
2.2163045357
 20
0.8546746373
 30
0.0
 40
0.100000000000004
 50
180.0
 51
270.0
  0
ARC
  5
4E9
  8
0
  6
HIDDEN
 62
     7
 10
-2.3036954643
 20
0.8546746373
 30
0.0
 40
0.100000000000003
 50
270.0
 51
0.0
  0
ARC
  5
4EA
  8
0
  6
HIDDEN
 62
     7
 10
-2.3036954643
 20
2.7546746373
 30
0.0
 40
0.1000000000000028
 50
360.0
 51
90.0
  0
ARC
  5
4EB
  8
0
  6
HIDDEN
 62
     7
 10
-2.3936954643
 20
3.9046746373
 30
0.0
 40
0.1000000000000023
 50
90.0
 51
180.0
  0
ARC
  5
4EC
  8
0
  6
HIDDEN
 62
     7
 10
2.3063045357
 20
3.9046746373
 30
0.0
 40
0.1000000000000072
 50
0.0
 51
90.0
  0
ARC
  5
4ED
  8
0
  6
HIDDEN
 62
     7
 10
2.3063045357
 20
3.8046746373
 30
0.0
 40
0.1000000000000059
 50
270.0
 51
0.0
  0
ARC
  5
4EE
  8
0
  6
HIDDEN
 62
     7
 10
1.1563045357
 20
3.8046746373
 30
0.0
 40
0.1000000000000063
 50
180.0
 51
270.0
  0
ARC
  5
4EF
  8
0
  6
HIDDEN
 62
     7
 10
-1.2436954643
 20
3.8046746373
 30
0.0
 40
0.0999999999999956
 50
270.0
 51
0.0
  0
ARC
  5
4F0
  8
0
  6
HIDDEN
 62
     7
 10
-2.3936954643
 20
3.8046746373
 30
0.0
 40
0.1000000000000023
 50
180.0
 51
270.0
  0
ENDSEC
  0
EOF
